<svg xmlns="http://www.w3.org/2000/svg" width="800" height="600" viewBox="0 0 800 600">
  <!-- Background -->
  <rect width="800" height="600" fill="#0D0D0D"/>
  
  <!-- Grid lines (tactical overlay) -->
  <defs>
    <pattern id="grid" width="40" height="40" patternUnits="userSpaceOnUse">
      <path d="M 40 0 L 0 0 0 40" fill="none" stroke="#00AA00" stroke-width="0.5" opacity="0.3"/>
    </pattern>
  </defs>
  <rect width="800" height="600" fill="url(#grid)"/>
  
  <!-- Topographical contour lines - Central Victoria terrain -->
  <!-- Higher elevation areas (hills/mountains) -->
  <ellipse cx="400" cy="280" rx="180" ry="140" fill="none" stroke="#00EE00" stroke-width="1.5" opacity="0.8"/>
  <ellipse cx="400" cy="280" rx="150" ry="110" fill="none" stroke="#00EE00" stroke-width="1.5" opacity="0.8"/>
  <ellipse cx="400" cy="280" rx="120" ry="80" fill="none" stroke="#00DD00" stroke-width="1.5" opacity="0.9"/>
  <ellipse cx="400" cy="280" rx="90" ry="60" fill="none" stroke="#00DD00" stroke-width="1.5" opacity="0.9"/>
  <ellipse cx="400" cy="280" rx="60" ry="40" fill="none" stroke="#00FF00" stroke-width="2" opacity="1"/>
  
  <!-- Secondary elevation -->
  <ellipse cx="250" cy="400" rx="100" ry="70" fill="none" stroke="#00DD00" stroke-width="1.5" opacity="0.7"/>
  <ellipse cx="250" cy="400" rx="70" ry="50" fill="none" stroke="#00EE00" stroke-width="1.5" opacity="0.8"/>
  <ellipse cx="250" cy="400" rx="40" ry="30" fill="none" stroke="#00FF00" stroke-width="1.5" opacity="0.9"/>
  
  <!-- Tertiary hills -->
  <ellipse cx="580" cy="350" rx="80" ry="60" fill="none" stroke="#00DD00" stroke-width="1.5" opacity="0.7"/>
  <ellipse cx="580" cy="350" rx="50" ry="40" fill="none" stroke="#00EE00" stroke-width="1.5" opacity="0.8"/>
  
  <!-- Coordinate markers -->
  <text x="50" y="30" font-family="White Rabbit, monospace" font-size="14" fill="#00EE00" opacity="0.9">
    LAT: -37.8136° S
  </text>
  <text x="50" y="50" font-family="White Rabbit, monospace" font-size="14" fill="#00EE00" opacity="0.9">
    LON: 144.9631° E
  </text>
  
  <!-- Tactical overlay text -->
  <text x="650" y="30" font-family="White Rabbit, monospace" font-size="12" fill="#00FF00" opacity="0.9">
    SATELLITE VIEW
  </text>
  <text x="650" y="50" font-family="White Rabbit, monospace" font-size="12" fill="#00AA00" opacity="0.8">
    CENTRAL VICTORIA
  </text>
  
  <!-- Zoom level -->
  <text x="50" y="580" font-family="White Rabbit, monospace" font-size="12" fill="#00AA00" opacity="0.8">
    ZOOM: 1.0x | ELEV: 50-800m
  </text>
  
  <!-- Crosshair center -->
  <circle cx="400" cy="300" r="3" fill="#00FF00" opacity="0.8"/>
  <line x1="400" y1="290" x2="400" y2="270" stroke="#00FF00" stroke-width="1" opacity="0.8"/>
  <line x1="400" y1="310" x2="400" y2="330" stroke="#00FF00" stroke-width="1" opacity="0.8"/>
  <line x1="390" y1="300" x2="370" y2="300" stroke="#00FF00" stroke-width="1" opacity="0.8"/>
  <line x1="410" y1="300" x2="430" y2="300" stroke="#00FF00" stroke-width="1" opacity="0.8"/>
</svg>
