<?xml version="1.0" encoding="UTF-8" standalone="no"?>
<svg
   width="900"
   height="160"
   viewBox="0 0 900 160"
   version="1.1"
   id="svg125"
   xmlns="http://www.w3.org/2000/svg"
   xmlns:svg="http://www.w3.org/2000/svg">
  <defs
     id="defs64">
    <!-- Chrome frame gradient (from text input) -->
    <linearGradient
       id="chromeFrame"
       x1="0"
       y1="0"
       x2="0"
       y2="1">
      <stop
         offset="0%"
         stop-color="#050505"
         id="stop1" />
      <stop
         offset="10%"
         stop-color="#1f1f1f"
         id="stop2" />
      <stop
         offset="20%"
         stop-color="#5a5a5a"
         id="stop3" />
      <stop
         offset="30%"
         stop-color="#c0c0c0"
         id="stop4" />
      <stop
         offset="40%"
         stop-color="#ffffff"
         id="stop5" />
      <stop
         offset="50%"
         stop-color="#ffffff"
         id="stop6" />
      <stop
         offset="60%"
         stop-color="#c0c0c0"
         id="stop7" />
      <stop
         offset="70%"
         stop-color="#5a5a5a"
         id="stop8" />
      <stop
         offset="80%"
         stop-color="#1f1f1f"
         id="stop9" />
      <stop
         offset="100%"
         stop-color="#080808"
         id="stop10" />
    </linearGradient>
    <!-- Chrome stroke -->
    <linearGradient
       id="chromeStroke"
       x1="0"
       y1="0"
       x2="1"
       y2="0">
      <stop
         offset="0%"
         stop-color="#c8c8c8"
         id="stop11" />
      <stop
         offset="50%"
         stop-color="#ffffff"
         id="stop12" />
      <stop
         offset="100%"
         stop-color="#b8b8b8"
         id="stop13" />
    </linearGradient>
    <!-- Inner field - dark background -->
    <linearGradient
       id="innerField"
       x1="0"
       y1="0"
       x2="0"
       y2="1">
      <stop
         offset="0%"
         stop-color="#0a0f0a"
         stop-opacity="0.95"
         id="stop14" />
      <stop
         offset="50%"
         stop-color="#050a06"
         stop-opacity="0.98"
         id="stop15" />
      <stop
         offset="100%"
         stop-color="#020302"
         stop-opacity="0.95"
         id="stop16" />
    </linearGradient>
    <!-- Circuit board pattern -->
    <pattern
       id="circuitPattern"
       x="0"
       y="0"
       width="80"
       height="80"
       patternUnits="userSpaceOnUse">
      <rect
         width="80"
         height="80"
         fill="#0a0a0a"
         id="rect16" />
      <!-- Horizontal traces -->
      <line
         x1="0"
         y1="20"
         x2="50"
         y2="20"
         stroke="#39ff14"
         stroke-width="0.5"
         opacity="0.15"
         id="line16" />
      <line
         x1="30"
         y1="40"
         x2="80"
         y2="40"
         stroke="#39ff14"
         stroke-width="0.5"
         opacity="0.15"
         id="line17" />
      <line
         x1="10"
         y1="60"
         x2="70"
         y2="60"
         stroke="#39ff14"
         stroke-width="0.5"
         opacity="0.15"
         id="line18" />
      <!-- Vertical traces -->
      <line
         x1="25"
         y1="0"
         x2="25"
         y2="35"
         stroke="#39ff14"
         stroke-width="0.5"
         opacity="0.15"
         id="line19" />
      <line
         x1="50"
         y1="15"
         x2="50"
         y2="80"
         stroke="#39ff14"
         stroke-width="0.5"
         opacity="0.15"
         id="line20" />
      <line
         x1="65"
         y1="0"
         x2="65"
         y2="45"
         stroke="#39ff14"
         stroke-width="0.5"
         opacity="0.15"
         id="line21" />
      <!-- Connection nodes -->
      <circle
         cx="25"
         cy="20"
         r="1"
         fill="#39ff14"
         opacity="0.2"
         id="circle21" />
      <circle
         cx="50"
         cy="40"
         r="1"
         fill="#39ff14"
         opacity="0.2"
         id="circle22" />
      <circle
         cx="65"
         cy="40"
         r="1"
         fill="#39ff14"
         opacity="0.2"
         id="circle23" />
      <circle
         cx="50"
         cy="20"
         r="0.8"
         fill="#39ff14"
         opacity="0.15"
         id="circle24" />
      <circle
         cx="25"
         cy="35"
         r="0.8"
         fill="#39ff14"
         opacity="0.15"
         id="circle25" />
      <!-- Small pads -->
      <rect
         x="48.5"
         y="18.5"
         width="3"
         height="3"
         fill="none"
         stroke="#39ff14"
         stroke-width="0.4"
         opacity="0.12"
         id="rect25" />
      <rect
         x="23.5"
         y="33.5"
         width="3"
         height="3"
         fill="none"
         stroke="#39ff14"
         stroke-width="0.4"
         opacity="0.12"
         id="rect26" />
      <!-- Microscopic text labels along circuit traces -->
      <!-- AES-256 along horizontal trace -->
      <path
         d="M 3.0876465,18.522705 H 2.4138184 l -0.1379395,0.374756 h 0.1965332 q 0.036621,0 0.05249,0.01465 0.015869,0.01343 0.015869,0.03662 0,0.02197 -0.015869,0.03662 Q 2.5090332,19 2.4724121,19 H 2.0891113 q -0.036621,0 -0.05249,-0.01465 -0.015869,-0.01465 -0.015869,-0.03662 0,-0.02319 0.015869,-0.03662 0.015869,-0.01465 0.05249,-0.01465 H 2.168457 L 2.6213379,17.674316 H 2.3186035 q -0.036621,0 -0.05249,-0.01343 -0.015869,-0.01465 -0.015869,-0.03784 0,-0.02319 0.015869,-0.03662 0.015869,-0.01465 0.05249,-0.01465 h 0.5163574 l 0.5004883,1.325684 h 0.079346 q 0.036621,0 0.05249,0.01465 0.015869,0.01343 0.015869,0.03662 0,0.02197 -0.015869,0.03662 Q 3.451416,19 3.4147949,19 H 3.0327148 q -0.037842,0 -0.053711,-0.01465 -0.015869,-0.01465 -0.015869,-0.03662 0,-0.02319 0.015869,-0.03662 0.015869,-0.01465 0.053711,-0.01465 H 3.2280273 Z M 3.048584,18.420166 2.7653809,17.674316 h -0.037842 l -0.2746582,0.74585 z m 1.3679199,-0.109863 v 0.587158 h 0.7885742 v -0.302734 q 0,-0.03662 0.013428,-0.05249 0.014648,-0.01587 0.037842,-0.01587 0.023193,0 0.036621,0.01587 0.014648,0.01587 0.014648,0.05249 V 19 H 4.1760254 q -0.036621,0 -0.05249,-0.01465 -0.015869,-0.01465 -0.015869,-0.03662 0,-0.02319 0.015869,-0.03662 0.015869,-0.01465 0.05249,-0.01465 H 4.3139648 V 17.674316 H 4.1760254 q -0.036621,0 -0.05249,-0.01343 -0.015869,-0.01465 -0.015869,-0.03784 0,-0.02319 0.015869,-0.03662 0.015869,-0.01465 0.05249,-0.01465 h 1.0778808 v 0.352784 q 0,0.03662 -0.014648,0.05249 -0.013428,0.01587 -0.036621,0.01587 -0.023193,0 -0.037842,-0.01587 -0.013428,-0.01587 -0.013428,-0.05249 V 17.674316 H 4.4165039 v 0.533448 h 0.3674316 v -0.115967 q 0,-0.03662 0.014648,-0.05249 0.014648,-0.01587 0.037842,-0.01587 0.021973,0 0.036621,0.01587 0.014648,0.01587 0.014648,0.05249 v 0.334473 q 0,0.03662 -0.014648,0.05249 -0.014649,0.01587 -0.036621,0.01587 -0.023193,0 -0.037842,-0.01587 -0.014648,-0.01587 -0.014648,-0.05249 v -0.115967 z m 2.7009277,-0.635987 v -0.03418 q 0,-0.03662 0.013428,-0.05249 0.014648,-0.01587 0.037842,-0.01587 0.023193,0 0.036621,0.01587 0.014648,0.01587 0.014648,0.05249 v 0.26123 q 0,0.03662 -0.014648,0.05249 -0.013428,0.01587 -0.036621,0.01587 -0.021973,0 -0.036621,-0.01465 -0.013428,-0.01465 -0.014648,-0.04761 -0.0061,-0.102539 -0.1062011,-0.184326 -0.098877,-0.08179 -0.2600098,-0.08179 -0.1696777,0 -0.2697754,0.08789 -0.1000976,0.08667 -0.1000976,0.205078 0,0.06104 0.028076,0.111084 0.028076,0.05005 0.074463,0.08179 0.046387,0.03052 0.1049805,0.05005 0.058594,0.01831 0.1831055,0.03906 0.2087402,0.03418 0.2880859,0.06958 0.1062012,0.04761 0.1599121,0.131836 0.054932,0.08423 0.054932,0.198974 0,0.175781 -0.1403808,0.300293 -0.1403809,0.123291 -0.378418,0.123291 -0.267334,0 -0.4272461,-0.167236 v 0.05859 q 0,0.03662 -0.014648,0.05249 Q 6.3007812,19 6.2775879,19 q -0.021973,0 -0.036621,-0.01587 -0.014648,-0.01587 -0.014648,-0.05249 v -0.283204 q 0,-0.03784 0.013428,-0.05371 0.014648,-0.01587 0.037842,-0.01587 0.021973,0 0.0354,0.01465 0.014648,0.01465 0.015869,0.04761 0.0061,0.112305 0.1196289,0.205078 0.1147461,0.09155 0.3076172,0.09155 0.1928711,0 0.3039551,-0.09643 0.1123047,-0.09644 0.1123047,-0.228272 0,-0.08057 -0.042725,-0.142822 -0.042725,-0.06348 -0.1269532,-0.100098 -0.058594,-0.02564 -0.2441406,-0.05737 -0.2551269,-0.04272 -0.3674316,-0.130615 -0.1123047,-0.08789 -0.1123047,-0.250244 0,-0.161133 0.1281738,-0.2771 0.1293946,-0.115967 0.3405762,-0.115967 0.2148437,0 0.369873,0.135498 z m 2.1564942,0.545655 v 0.146484 H 8.2277832 v -0.146484 z m 1.0358882,0.67749 h 0.787354 v -0.04028 q 0,-0.03662 0.01465,-0.05249 0.01465,-0.01587 0.03784,-0.01587 0.02197,0 0.03662,0.01587 0.01465,0.01587 0.01465,0.05249 V 19 h -0.991211 v -0.151367 q 0.3125,-0.280762 0.60791,-0.571289 0.137939,-0.135498 0.189209,-0.198975 0.05127,-0.06348 0.06958,-0.111084 0.01953,-0.04883 0.01953,-0.09766 0,-0.131836 -0.106201,-0.233154 -0.106201,-0.101319 -0.256348,-0.101319 -0.134277,0 -0.238037,0.07691 -0.103759,0.0769 -0.134277,0.190429 -0.0073,0.0293 -0.01831,0.03784 -0.01465,0.01221 -0.03418,0.01221 -0.02075,0 -0.0354,-0.01343 -0.01343,-0.01465 -0.01343,-0.03418 0,-0.05859 0.06348,-0.158692 0.0647,-0.100097 0.177002,-0.15747 0.113526,-0.05737 0.231934,-0.05737 0.19165,0 0.32959,0.133057 0.137939,0.133057 0.137939,0.301514 0,0.0708 -0.02319,0.130615 -0.02319,0.05859 -0.07935,0.129395 -0.05493,0.06958 -0.198975,0.211181 -0.361328,0.356446 -0.588379,0.552979 z m 2.158936,-1.325684 v 0.501709 q 0.09033,-0.03784 0.17334,-0.05615 0.08301,-0.01953 0.157471,-0.01953 0.192871,0 0.322265,0.135498 0.130615,0.135498 0.130615,0.356445 0,0.244141 -0.146484,0.395508 -0.146484,0.151367 -0.366211,0.151367 -0.145264,0 -0.279541,-0.0647 -0.09521,-0.04517 -0.17334,-0.112305 -0.04639,-0.04028 -0.04639,-0.06714 0,-0.02197 0.01465,-0.03662 0.01465,-0.01587 0.03418,-0.01587 0.02075,0 0.04394,0.02197 0.184326,0.172119 0.401611,0.172119 0.179444,0 0.296631,-0.12207 0.117188,-0.123291 0.117188,-0.327149 0,-0.17334 -0.101319,-0.27832 -0.101318,-0.106201 -0.257568,-0.106201 -0.159912,0 -0.319824,0.08423 -0.03906,0.01953 -0.05493,0.01953 -0.02197,0 -0.0354,-0.01465 -0.01343,-0.01465 -0.01343,-0.0415 v -0.679931 h 0.715332 q 0.03662,0 0.05249,0.01465 0.01587,0.01465 0.01587,0.03784 0,0.02197 -0.01587,0.03662 -0.01587,0.01465 -0.05249,0.01465 z m 1.977051,0.78003 q 0.09522,-0.140381 0.195312,-0.20752 0.101319,-0.06714 0.22461,-0.06714 0.163574,0 0.290527,0.136719 0.126953,0.135498 0.126953,0.335694 0,0.183105 -0.115967,0.335693 -0.115966,0.151367 -0.319824,0.151367 -0.133057,0 -0.249023,-0.08179 -0.114746,-0.08179 -0.180664,-0.251465 -0.08179,-0.211182 -0.08179,-0.467529 0,-0.192871 0.0769,-0.358887 0.05859,-0.128174 0.15625,-0.224609 0.09766,-0.09766 0.227051,-0.158692 0.130615,-0.06226 0.281982,-0.06226 0.102539,0 0.170898,0.0415 0.0293,0.01831 0.0293,0.04883 0,0.02197 -0.01343,0.03662 -0.01343,0.01343 -0.03418,0.01343 -0.01587,0 -0.03784,-0.01221 -0.05005,-0.02441 -0.124512,-0.02441 -0.238037,0 -0.43457,0.205078 -0.195312,0.203858 -0.195312,0.48584 0,0.04028 0.0073,0.125733 z m 0.02319,0.169677 q 0.04639,0.222168 0.145264,0.317383 0.100097,0.09521 0.235596,0.09521 0.136718,0 0.233154,-0.106201 0.09766,-0.107422 0.09766,-0.27832 0,-0.159913 -0.09766,-0.264893 -0.09766,-0.104981 -0.220947,-0.104981 -0.118409,0 -0.228272,0.101319 -0.07324,0.06714 -0.164795,0.240478 z"
         id="text26"
         style="font-size:2.5px;font-family:'Courier New', monospace;letter-spacing:0.5;opacity:0.09;fill:#39ff14"
         aria-label="AES-256" />
      <!-- Zero-Trust along vertical trace -->
      <path
         d="m 23.417489,9.0978516 v -0.869043 h 0.131055 l 1.028027,0.7326172 h 0.0075 V 8.3609375 h -0.265332 q -0.0333,0 -0.04727,-0.012891 -0.01396,-0.012891 -0.01396,-0.033301 0,-0.019336 0.01396,-0.032227 0.01396,-0.012891 0.04727,-0.012891 h 0.355566 V 9.0484375 H 24.546493 L 23.517392,8.3158203 h -0.0097 v 0.6917969 h 0.314746 q 0.0333,0 0.04726,0.011816 0.01397,0.012891 0.01397,0.033301 0,0.02041 -0.01397,0.032227 -0.01396,0.012891 -0.04726,0.012891 z m 0.443653,1.6707034 V 9.8490235 q -0.175098,0.023633 -0.28252,0.1460938 -0.106347,0.1235347 -0.106347,0.3050777 0,0.100977 0.0333,0.211622 0.0333,0.110644 0.08809,0.180468 0.01611,0.02041 0.01611,0.03545 0,0.01719 -0.01396,0.03008 -0.01289,0.01289 -0.03115,0.01289 -0.01826,0 -0.03545,-0.01719 -0.05371,-0.05156 -0.100976,-0.183692 -0.04619,-0.131054 -0.04619,-0.269629 0,-0.232031 0.151465,-0.3877926 0.152539,-0.1546875 0.368457,-0.1546875 0.196582,0 0.337305,0.1450196 0.140722,0.1460935 0.140722,0.3609375 0,0.221289 -0.145019,0.36416 -0.143945,0.142871 -0.373828,0.140723 z m 0.09131,-0.09131 q 0.149317,-0.02685 0.242774,-0.141797 0.09346,-0.113867 0.09346,-0.271777 0,-0.15791 -0.09238,-0.2717774 -0.09238,-0.1138672 -0.243848,-0.1417968 z m 0.395313,1.115332 h -0.227735 q 0.158985,0.176172 0.204102,0.263184 0.04619,0.08809 0.04619,0.162207 0,0.08057 -0.05478,0.149316 -0.05371,0.06982 -0.08164,0.06982 -0.02041,0 -0.03438,-0.01397 -0.01289,-0.01289 -0.01289,-0.0333 0,-0.01074 0.0032,-0.01826 0.0043,-0.0075 0.02471,-0.02793 0.0376,-0.0376 0.05156,-0.06553 0.01397,-0.02793 0.01397,-0.05478 0,-0.05908 -0.04727,-0.142871 -0.04727,-0.08272 -0.230957,-0.287891 h -0.49414 v 0.39961 q 0,0.0333 -0.01289,0.04726 -0.01182,0.01397 -0.03223,0.01397 -0.01934,0 -0.03223,-0.01397 -0.01289,-0.01396 -0.01289,-0.04726 v -0.70791 q 0,-0.03223 0.01182,-0.04619 0.01289,-0.01397 0.03223,-0.01397 0.01826,0 0.03008,0.01289 0.01289,0.01397 0.01289,0.04727 v 0.218066 h 0.751953 V 11.53584 q 0,-0.03223 0.01289,-0.04619 0.01289,-0.01397 0.0333,-0.01397 0.01934,0 0.03223,0.01289 0.01289,0.01397 0.01289,0.04727 z m -0.467285,2.23252 q -0.20625,0 -0.352344,-0.148242 -0.146094,-0.147168 -0.146094,-0.355567 0,-0.210547 0.146094,-0.357714 0.147168,-0.147168 0.352344,-0.147168 0.20625,0 0.352343,0.147168 0.147168,0.147167 0.147168,0.357714 0,0.208399 -0.146093,0.355567 -0.146094,0.148242 -0.353418,0.148242 z m 0,-0.09131 q 0.169726,0 0.288964,-0.121386 0.119239,-0.120313 0.119239,-0.292188 0,-0.171875 -0.120313,-0.293262 -0.119238,-0.120312 -0.28789,-0.120312 -0.167578,0 -0.287891,0.120312 -0.120312,0.121387 -0.120312,0.293262 0,0.171875 0.119238,0.292188 0.120312,0.121386 0.288965,0.121386 z m 0.223437,1.667481 h -0.128906 v -0.920606 h 0.128906 z m 0.480176,1.204492 h -1.076367 v 0.234179 q 0,0.03223 -0.01289,0.04619 -0.01182,0.01396 -0.03223,0.01396 -0.01934,0 -0.03223,-0.01396 -0.01289,-0.01396 -0.01289,-0.04619 v -0.559668 q 0,-0.03223 0.01289,-0.04619 0.01289,-0.01396 0.03223,-0.01396 0.02041,0 0.03223,0.01396 0.01289,0.01396 0.01289,0.04619 v 0.23418 h 1.076367 v -0.369531 h -0.312598 q -0.0333,0 -0.04726,-0.01289 -0.01396,-0.01182 -0.01396,-0.03223 0,-0.01934 0.01396,-0.03223 0.01396,-0.01289 0.04726,-0.01289 h 0.402832 v 1.010839 h -0.402832 q -0.0333,0 -0.04726,-0.01289 -0.01396,-0.01182 -0.01396,-0.03223 0,-0.02041 0.01396,-0.0333 0.01396,-0.01182 0.04726,-0.01182 h 0.312598 z m -0.236328,1.467676 h -0.227735 q 0.158985,0.176172 0.204102,0.263184 0.04619,0.08809 0.04619,0.162207 0,0.08057 -0.05478,0.149316 -0.05371,0.06982 -0.08164,0.06982 -0.02041,0 -0.03438,-0.01396 -0.01289,-0.01289 -0.01289,-0.0333 0,-0.01074 0.0032,-0.01826 0.0043,-0.0075 0.02471,-0.02793 0.0376,-0.0376 0.05156,-0.06553 0.01397,-0.02793 0.01397,-0.05478 0,-0.05908 -0.04727,-0.142871 -0.04727,-0.08272 -0.230957,-0.287891 h -0.49414 v 0.399609 q 0,0.0333 -0.01289,0.04727 -0.01182,0.01396 -0.03223,0.01396 -0.01934,0 -0.03223,-0.01396 -0.01289,-0.01397 -0.01289,-0.04727 v -0.70791 q 0,-0.03223 0.01182,-0.04619 0.01289,-0.01396 0.03223,-0.01396 0.01826,0 0.03008,0.01289 0.01289,0.01397 0.01289,0.04726 v 0.218067 h 0.751953 V 18.0167 q 0,-0.03223 0.01289,-0.04619 0.01289,-0.01396 0.0333,-0.01396 0.01934,0 0.03223,0.01289 0.01289,0.01396 0.01289,0.04727 z m -0.930274,2.037011 h 0.132129 Q 23.38204,20.125684 23.38204,19.91084 q 0,-0.132129 0.07197,-0.200879 0.09453,-0.08916 0.220215,-0.08916 h 0.582226 v -0.121387 q 0,-0.03223 0.01289,-0.04619 0.01289,-0.01397 0.0333,-0.01397 0.01934,0 0.03223,0.01397 0.01289,0.01396 0.01289,0.04619 v 0.211621 h -0.673535 q -0.08809,0 -0.14502,0.05586 -0.05693,0.05586 -0.05693,0.139648 0,0.220215 0.201953,0.403906 h 0.582226 v -0.166503 q 0,-0.03223 0.01289,-0.04619 0.01289,-0.01396 0.0333,-0.01396 0.01934,0 0.03223,0.01396 0.01289,0.01397 0.01289,0.04619 v 0.256738 h -0.840039 v 0.07627 q 0,0.03223 -0.01289,0.04619 -0.01182,0.01396 -0.03223,0.01396 -0.01934,0 -0.03223,-0.01396 -0.01289,-0.01396 -0.01289,-0.04619 z m 0.871192,1.609474 q 0.03115,0 0.04512,0.01289 0.01396,0.01289 0.01396,0.03223 0,0.02041 -0.01396,0.0333 -0.01397,0.01289 -0.04727,0.01289 h -0.154687 q -0.03223,0 -0.04619,-0.01289 -0.01396,-0.01289 -0.01396,-0.0333 0,-0.01826 0.01182,-0.03115 0.01182,-0.01182 0.03867,-0.01396 0.06445,-0.0064 0.106348,-0.0666 0.06016,-0.08809 0.06016,-0.233105 0,-0.151465 -0.06123,-0.235254 -0.04619,-0.06338 -0.103125,-0.06338 -0.06445,0 -0.107422,0.0752 -0.03008,0.05156 -0.04619,0.195508 -0.02041,0.187988 -0.04619,0.261035 -0.0376,0.104199 -0.1042,0.154688 -0.0666,0.05156 -0.143945,0.05156 -0.114941,0 -0.205176,-0.110644 -0.08916,-0.110645 -0.08916,-0.324415 0,-0.213769 0.108496,-0.350195 -0.03652,0 -0.04726,-0.0043 -0.01074,-0.0043 -0.01826,-0.01611 -0.0075,-0.01074 -0.0075,-0.02471 0,-0.01934 0.01396,-0.03223 0.01397,-0.01289 0.04619,-0.01289 h 0.185839 q 0.03223,0 0.04619,0.01182 0.01397,0.01289 0.01397,0.0333 0,0.01934 -0.01397,0.03223 -0.01289,0.01396 -0.03545,0.01396 -0.04941,0 -0.08272,0.02471 -0.05156,0.0376 -0.08594,0.119239 -0.0333,0.08272 -0.0333,0.201953 0,0.176172 0.06553,0.262109 0.06553,0.08594 0.138574,0.08594 0.08379,0 0.134277,-0.08701 0.05049,-0.08809 0.06768,-0.256738 0.01719,-0.167578 0.04512,-0.240625 0.02793,-0.07305 0.08379,-0.113867 0.05586,-0.04082 0.120313,-0.04082 0.116016,0 0.183691,0.113867 0.06875,0.113868 0.06875,0.271778 0,0.186914 -0.09131,0.304004 z m 0.05908,1.136816 v 0.489843 q 0,0.03223 -0.01289,0.04619 -0.01289,0.01397 -0.0333,0.01397 -0.01934,0 -0.03223,-0.01397 -0.01289,-0.01396 -0.01289,-0.04619 v -0.489843 h -0.600488 q -0.07842,0 -0.131055,0.0623 -0.05264,0.06338 -0.05264,0.184766 0,0.09131 0.02686,0.197656 0.02793,0.106348 0.0623,0.16543 0.01396,0.02148 0.01396,0.03545 0,0.01719 -0.01396,0.03008 -0.01289,0.01289 -0.03115,0.01289 -0.01611,0 -0.03008,-0.01396 -0.03545,-0.03438 -0.07734,-0.167578 -0.04082,-0.132129 -0.04082,-0.253516 0,-0.15791 0.07412,-0.251367 0.07412,-0.09346 0.199805,-0.09346 h 0.600488 v -0.166504 q 0,-0.03223 0.01289,-0.04619 0.01289,-0.01397 0.0333,-0.01397 0.01934,0 0.03223,0.01397 0.01289,0.01396 0.01289,0.04619 v 0.166504 h 0.266406 q 0.03223,0 0.04619,0.01289 0.01396,0.01289 0.01396,0.03223 0,0.02041 -0.01396,0.0333 -0.01396,0.01289 -0.04619,0.01289 z"
         id="text27"
         style="font-size:2.2px;font-family:'Courier New', monospace;letter-spacing:0.3;writing-mode:tb-rl;opacity:0.09;fill:#39ff14"
         aria-label="Zero-Trust" />
      <!-- Mil-Spec along horizontal trace -->
      <path
         d="m 32.817871,38.571533 h -0.117187 l -0.394288,-0.897217 h -0.01953 v 1.223145 h 0.189209 q 0.03662,0 0.05249,0.01465 0.01587,0.01343 0.01587,0.03662 0,0.02197 -0.01587,0.03662 Q 32.512695,39 32.476074,39 h -0.378418 q -0.03662,0 -0.05249,-0.01465 -0.01587,-0.01465 -0.01587,-0.03662 0,-0.02319 0.01587,-0.03662 0.01587,-0.01465 0.05249,-0.01465 h 0.08667 v -1.223145 h -0.0647 q -0.03662,0 -0.05249,-0.01343 -0.01587,-0.01465 -0.01587,-0.03784 0,-0.02319 0.01587,-0.03662 0.01587,-0.01465 0.05249,-0.01465 h 0.251465 l 0.388183,0.883789 0.38208,-0.883789 h 0.251465 q 0.03784,0 0.05371,0.01465 0.01587,0.01343 0.01587,0.03662 0,0.02319 -0.01587,0.03784 -0.01587,0.01343 -0.05371,0.01343 h -0.06348 v 1.223145 h 0.08545 q 0.03784,0 0.05371,0.01465 0.01587,0.01343 0.01587,0.03662 0,0.02197 -0.01587,0.03662 Q 33.452637,39 33.414795,39 h -0.377197 q -0.03662,0 -0.05371,-0.01465 -0.01587,-0.01465 -0.01587,-0.03662 0,-0.02319 0.01587,-0.03662 0.01587,-0.01465 0.05371,-0.01465 h 0.189209 v -1.223145 h -0.02197 z m 1.983154,-1.154785 v 0.264893 h -0.151367 v -0.264893 z m 0.0037,0.526123 v 0.95459 h 0.402833 q 0.03784,0 0.05371,0.01465 0.01587,0.01343 0.01587,0.03662 0,0.02197 -0.01587,0.03662 Q 35.245361,39 35.20752,39 h -0.908204 q -0.03662,0 -0.05249,-0.01465 -0.01587,-0.01465 -0.01587,-0.03662 0,-0.02319 0.01587,-0.03662 0.01587,-0.01465 0.05249,-0.01465 h 0.402832 v -0.85083 h -0.299072 q -0.03662,0 -0.05371,-0.01465 -0.01587,-0.01465 -0.01587,-0.03662 0,-0.02319 0.01587,-0.03784 0.01587,-0.01465 0.05371,-0.01465 z m 1.997803,-0.474853 v 1.429443 h 0.402832 q 0.03784,0 0.05371,0.01465 0.01587,0.01343 0.01587,0.03662 0,0.02197 -0.01587,0.03662 Q 37.243164,39 37.205322,39 h -0.908203 q -0.03662,0 -0.05249,-0.01465 -0.01587,-0.01465 -0.01587,-0.03662 0,-0.02319 0.01587,-0.03662 0.01587,-0.01465 0.05249,-0.01465 h 0.402832 v -1.325684 h -0.29541 q -0.03662,0 -0.05371,-0.01465 -0.01587,-0.01465 -0.01587,-0.03784 0,-0.02197 0.01587,-0.03662 0.01587,-0.01465 0.05371,-0.01465 z m 2.471436,0.751953 v 0.146484 h -1.046143 v -0.146484 z m 1.843994,-0.545655 v -0.03418 q 0,-0.03662 0.01343,-0.05249 0.01465,-0.01587 0.03784,-0.01587 0.02319,0 0.03662,0.01587 0.01465,0.01587 0.01465,0.05249 v 0.26123 q 0,0.03662 -0.01465,0.05249 -0.01343,0.01587 -0.03662,0.01587 -0.02197,0 -0.03662,-0.01465 -0.01343,-0.01465 -0.01465,-0.04761 -0.0061,-0.102539 -0.106201,-0.184326 -0.09888,-0.08179 -0.26001,-0.08179 -0.169678,0 -0.269775,0.08789 -0.100098,0.08667 -0.100098,0.205078 0,0.06104 0.02808,0.111084 0.02808,0.05005 0.07446,0.08179 0.04639,0.03052 0.10498,0.05005 0.05859,0.01831 0.183106,0.03906 0.20874,0.03418 0.288086,0.06958 0.106201,0.04761 0.159912,0.131836 0.05493,0.08423 0.05493,0.198974 0,0.175781 -0.140381,0.300293 -0.140381,0.123291 -0.378418,0.123291 -0.267334,0 -0.427246,-0.167236 v 0.05859 q 0,0.03662 -0.01465,0.05249 Q 40.30127,39 40.278076,39 q -0.02197,0 -0.03662,-0.01587 -0.01465,-0.01587 -0.01465,-0.05249 v -0.283204 q 0,-0.03784 0.01343,-0.05371 0.01465,-0.01587 0.03784,-0.01587 0.02197,0 0.0354,0.01465 0.01465,0.01465 0.01587,0.04761 0.0061,0.112305 0.119629,0.205078 0.114746,0.09155 0.307617,0.09155 0.192871,0 0.303955,-0.09643 0.112305,-0.09644 0.112305,-0.228272 0,-0.08057 -0.04272,-0.142822 -0.04273,-0.06348 -0.126953,-0.100098 -0.05859,-0.02564 -0.244141,-0.05737 -0.255127,-0.04272 -0.367431,-0.130615 -0.112305,-0.08789 -0.112305,-0.250244 0,-0.161133 0.128174,-0.2771 0.129394,-0.115967 0.340576,-0.115967 0.214844,0 0.369873,0.135498 z m 1.24707,0.268555 v 0.186768 q 0.09155,-0.111084 0.196533,-0.167237 0.104981,-0.05615 0.247803,-0.05615 0.151367,0 0.279541,0.0708 0.128174,0.0708 0.197754,0.197754 0.0708,0.125732 0.0708,0.264892 0,0.220948 -0.158692,0.378418 -0.15747,0.15625 -0.388183,0.15625 -0.274658,0 -0.445557,-0.223388 v 0.617675 h 0.249024 q 0.03662,0 0.05249,0.01343 0.01587,0.01465 0.01587,0.03784 0,0.02197 -0.01587,0.03662 -0.01587,0.01465 -0.05249,0.01465 h -0.489502 q -0.03662,0 -0.05249,-0.01465 -0.01587,-0.01343 -0.01587,-0.03662 0,-0.02319 0.01587,-0.03784 0.01587,-0.01343 0.05249,-0.01343 h 0.137939 v -1.322021 h -0.137939 q -0.03662,0 -0.05249,-0.01465 -0.01587,-0.01465 -0.01587,-0.03784 0,-0.02197 0.01587,-0.03662 0.01587,-0.01465 0.05249,-0.01465 z m 0.888672,0.496826 q 0,-0.177002 -0.129394,-0.302734 -0.128174,-0.126953 -0.313721,-0.126953 -0.186768,0 -0.316162,0.126953 -0.129395,0.126953 -0.129395,0.302734 0,0.177002 0.129395,0.303955 0.129394,0.126953 0.316162,0.126953 0.184326,0 0.313721,-0.125732 0.129394,-0.126953 0.129394,-0.305176 z m 2.052734,0.05615 h -1.044921 q 0.02686,0.198974 0.166015,0.321045 0.140381,0.120849 0.34668,0.120849 0.114746,0 0.240478,-0.03784 0.125733,-0.03784 0.205079,-0.100097 0.02319,-0.01831 0.04028,-0.01831 0.01953,0 0.03418,0.01587 0.01465,0.01465 0.01465,0.0354 0,0.02075 -0.01953,0.04028 -0.05859,0.06103 -0.208741,0.114746 -0.148925,0.05249 -0.306396,0.05249 -0.263672,0 -0.440674,-0.172119 -0.175781,-0.17334 -0.175781,-0.418701 0,-0.223389 0.164795,-0.383301 0.166015,-0.159912 0.410156,-0.159912 0.251465,0 0.413818,0.164795 0.162354,0.163574 0.159912,0.424805 z m -0.103759,-0.10376 q -0.03052,-0.169678 -0.161133,-0.275879 -0.129395,-0.106201 -0.308838,-0.106201 -0.179443,0 -0.308838,0.10498 -0.129394,0.104981 -0.161133,0.2771 z m 1.97705,-0.345459 v -0.03418 q 0,-0.03784 0.01465,-0.05371 0.01465,-0.01587 0.03662,-0.01587 0.02319,0 0.03784,0.01587 0.01465,0.01587 0.01465,0.05371 v 0.231934 q -0.0012,0.03784 -0.01587,0.05371 -0.01343,0.01587 -0.03662,0.01587 -0.02075,0 -0.0354,-0.01343 -0.01343,-0.01465 -0.01587,-0.04761 -0.0073,-0.08667 -0.114746,-0.164795 -0.106201,-0.07813 -0.286865,-0.07813 -0.228271,0 -0.34668,0.142822 -0.118408,0.142822 -0.118408,0.327148 0,0.198975 0.130616,0.32837 0.130615,0.129394 0.338134,0.129394 0.119629,0 0.24292,-0.04395 0.124512,-0.04395 0.22461,-0.141602 0.02563,-0.02441 0.04517,-0.02441 0.02075,0 0.03418,0.01465 0.01465,0.01343 0.01465,0.03418 0,0.05249 -0.123291,0.133057 -0.198975,0.130615 -0.443116,0.130615 -0.247802,0 -0.407714,-0.157471 -0.158692,-0.158691 -0.158692,-0.401611 0,-0.247803 0.162354,-0.411377 0.163574,-0.163574 0.411377,-0.163574 0.235595,0 0.395507,0.140381 z"
         id="text28"
         style="font-size:2.5px;font-family:'Courier New', monospace;letter-spacing:0.5;opacity:0.09;fill:#39ff14"
         aria-label="Mil-Spec" />
      <!-- Additional AES-256 along vertical trace -->
      <path
         d="M 48.837509,25.957129 V 25.36416 l -0.329785,-0.121387 v 0.17295 q 0,0.03223 -0.01289,0.04619 -0.01182,0.01396 -0.03223,0.01396 -0.01934,0 -0.03223,-0.01396 -0.01289,-0.01396 -0.01289,-0.04619 v -0.337305 q 0,-0.03223 0.01289,-0.04619 0.01289,-0.01396 0.03223,-0.01396 0.02041,0 0.03223,0.01396 0.01289,0.01396 0.01289,0.04619 v 0.06982 l 1.076367,0.398535 v -0.266406 q 0,-0.03223 0.01182,-0.04619 0.01289,-0.01396 0.0333,-0.01396 0.02041,0 0.03223,0.01396 0.01289,0.01397 0.01289,0.04619 v 0.454395 l -1.166601,0.440429 v 0.06983 q 0,0.03223 -0.01289,0.04619 -0.01182,0.01396 -0.03223,0.01396 -0.01934,0 -0.03223,-0.01396 -0.01289,-0.01396 -0.01289,-0.04619 v -0.336231 q 0,-0.0333 0.01289,-0.04727 0.01289,-0.01396 0.03223,-0.01396 0.02041,0 0.03223,0.01396 0.01289,0.01397 0.01289,0.04727 v 0.171875 z m 0.09023,-0.03437 0.656348,-0.249219 v -0.0333 l -0.656348,-0.241699 z m 0.09668,1.06377 h -0.516699 v 0.693945 h 0.266406 q 0.03223,0 0.04619,0.01182 0.01396,0.01289 0.01396,0.0333 0,0.02041 -0.01396,0.03223 -0.01396,0.01289 -0.04619,0.01289 h -0.356641 v -0.995801 q 0,-0.03223 0.01289,-0.04619 0.01289,-0.01396 0.03223,-0.01396 0.02041,0 0.03223,0.01396 0.01289,0.01396 0.01289,0.04619 v 0.121387 h 1.076367 v -0.121387 q 0,-0.03223 0.01182,-0.04619 0.01289,-0.01396 0.0333,-0.01396 0.02041,0 0.03223,0.01396 0.01289,0.01396 0.01289,0.04619 v 0.948536 h -0.310449 q -0.03223,0 -0.04619,-0.01289 -0.01396,-0.01182 -0.01396,-0.03223 0,-0.02041 0.01396,-0.0333 0.01397,-0.01182 0.04619,-0.01182 h 0.220215 v -0.646679 h -0.469434 v 0.323339 h 0.102051 q 0.03223,0 0.04619,0.01289 0.01396,0.01289 0.01396,0.0333 0,0.01934 -0.01396,0.03223 -0.01396,0.01289 -0.04619,0.01289 h -0.294336 q -0.03223,0 -0.04619,-0.01289 -0.01397,-0.01289 -0.01397,-0.03223 0,-0.02041 0.01397,-0.0333 0.01396,-0.01289 0.04619,-0.01289 h 0.102051 z m 0.559668,2.236816 h 0.03008 q 0.03223,0 0.04619,0.01182 0.01397,0.01289 0.01397,0.0333 0,0.02041 -0.01397,0.03223 -0.01396,0.01289 -0.04619,0.01289 h -0.229883 q -0.03223,0 -0.04619,-0.01289 -0.01397,-0.01182 -0.01397,-0.03223 0,-0.01934 0.01289,-0.03223 0.01289,-0.01182 0.04189,-0.01289 0.09023,-0.0054 0.162207,-0.09346 0.07197,-0.08701 0.07197,-0.228809 0,-0.149316 -0.07734,-0.237402 -0.07627,-0.08809 -0.180469,-0.08809 -0.05371,0 -0.09775,0.02471 -0.04404,0.02471 -0.07197,0.06553 -0.02686,0.04082 -0.04404,0.09238 -0.01611,0.05156 -0.03438,0.161133 -0.03008,0.183692 -0.06123,0.253516 -0.04189,0.09346 -0.116015,0.140722 -0.07412,0.04834 -0.175098,0.04834 -0.154687,0 -0.264258,-0.123535 -0.108496,-0.123535 -0.108496,-0.333008 0,-0.235254 0.147168,-0.375976 h -0.05156 q -0.03223,0 -0.04619,-0.01289 -0.01396,-0.01182 -0.01396,-0.03223 0,-0.01934 0.01396,-0.03223 0.01396,-0.01289 0.04619,-0.01289 h 0.249218 q 0.0333,0 0.04727,0.01182 0.01396,0.01289 0.01396,0.0333 0,0.01934 -0.01289,0.03115 -0.01289,0.01289 -0.04189,0.01397 -0.09883,0.0054 -0.180469,0.105273 -0.08057,0.100977 -0.08057,0.270703 0,0.169727 0.08486,0.267481 0.08486,0.09883 0.200879,0.09883 0.0709,0 0.125683,-0.0376 0.05586,-0.0376 0.08809,-0.111719 0.02256,-0.05156 0.05049,-0.214843 0.0376,-0.224512 0.114941,-0.32334 0.07734,-0.09883 0.220215,-0.09883 0.141797,0 0.243847,0.112793 0.102051,0.113867 0.102051,0.299707 0,0.189062 -0.119238,0.325488 z m -0.480176,1.757715 H 48.975009 V 30.06045 h 0.128906 z m -0.596191,0.771582 v 0.692871 h 0.03545 q 0.03223,0 0.04619,0.01289 0.01396,0.01289 0.01396,0.0333 0,0.01934 -0.01396,0.03223 -0.01396,0.01289 -0.04619,0.01289 h -0.125684 v -0.872266 h 0.133203 q 0.247071,0.275 0.502735,0.534961 0.119238,0.121387 0.175098,0.166504 0.05586,0.04512 0.09775,0.06123 0.04297,0.01719 0.08594,0.01719 0.116016,0 0.205176,-0.09346 0.08916,-0.09346 0.08916,-0.225586 0,-0.118164 -0.06768,-0.209473 -0.06768,-0.09131 -0.167578,-0.118164 -0.02578,-0.0064 -0.0333,-0.01611 -0.01074,-0.01289 -0.01074,-0.03008 0,-0.01826 0.01182,-0.03115 0.01289,-0.01182 0.03008,-0.01182 0.05156,0 0.139648,0.05586 0.08809,0.05693 0.138574,0.155761 0.05049,0.0999 0.05049,0.204102 0,0.168652 -0.117089,0.290039 -0.11709,0.121387 -0.265332,0.121387 -0.06231,0 -0.114942,-0.02041 -0.05156,-0.02041 -0.113867,-0.06982 -0.06123,-0.04834 -0.18584,-0.175097 -0.313672,-0.317969 -0.486621,-0.517774 z m 1.166601,1.759863 h -0.441504 q 0.0333,0.07949 0.04941,0.152539 0.01719,0.07305 0.01719,0.138574 0,0.169727 -0.119238,0.283594 -0.119239,0.114941 -0.313672,0.114941 -0.214844,0 -0.348047,-0.128906 -0.133203,-0.128906 -0.133203,-0.322265 0,-0.127832 0.05693,-0.245997 0.03975,-0.08379 0.09883,-0.152539 0.03545,-0.04082 0.05908,-0.04082 0.01933,0 0.03223,0.01289 0.01396,0.01289 0.01396,0.03008 0,0.01826 -0.01934,0.03867 -0.151465,0.162207 -0.151465,0.353418 0,0.15791 0.107422,0.261035 0.108496,0.103125 0.287891,0.103125 0.152539,0 0.244922,-0.08916 0.09346,-0.08916 0.09346,-0.22666 0,-0.140723 -0.07412,-0.281446 -0.01719,-0.03437 -0.01719,-0.04834 0,-0.01934 0.01289,-0.03115 0.01289,-0.01182 0.03652,-0.01182 h 0.59834 v 0.629492 q 0,0.03223 -0.01289,0.04619 -0.01289,0.01396 -0.0333,0.01396 -0.01934,0 -0.03223,-0.01396 -0.01289,-0.01396 -0.01289,-0.04619 z M 48.9879,35.112305 q 0.123535,0.08379 0.182617,0.171875 0.05908,0.08916 0.05908,0.197657 0,0.143945 -0.120313,0.255664 -0.119238,0.111718 -0.29541,0.111718 -0.161133,0 -0.29541,-0.10205 -0.133203,-0.102051 -0.133203,-0.281446 0,-0.11709 0.07197,-0.21914 0.07197,-0.100977 0.22129,-0.158985 0.185839,-0.07197 0.411425,-0.07197 0.169727,0 0.315821,0.06768 0.112793,0.05156 0.197656,0.1375 0.08594,0.08594 0.139648,0.199805 0.05479,0.114941 0.05479,0.248145 0,0.09023 -0.03652,0.15039 -0.01611,0.02578 -0.04297,0.02578 -0.01934,0 -0.03223,-0.01182 -0.01182,-0.01182 -0.01182,-0.03008 0,-0.01396 0.01074,-0.0333 0.02148,-0.04404 0.02148,-0.10957 0,-0.209473 -0.180469,-0.382422 -0.179394,-0.171875 -0.427539,-0.171875 -0.03545,0 -0.110644,0.0064 z m -0.149317,0.02041 q -0.195508,0.04082 -0.279297,0.127832 -0.08379,0.08809 -0.08379,0.207325 0,0.120312 0.09346,0.205175 0.09453,0.08594 0.244922,0.08594 0.140723,0 0.233106,-0.08594 0.09238,-0.08594 0.09238,-0.194433 0,-0.104199 -0.08916,-0.200879 -0.05908,-0.06445 -0.211621,-0.14502 z"
         id="text29"
         style="font-size:2.2px;font-family:'Courier New', monospace;letter-spacing:0.3;writing-mode:tb-rl;opacity:0.00489999;fill:#39ff14"
         aria-label="AES-256" />
      <!-- Zero-Trust along bottom horizontal -->
      <path
         d="M 16.247559,59 H 15.26001 v -0.148926 l 0.832519,-1.168213 v -0.0085 h -0.682373 v 0.301514 q 0,0.03784 -0.01465,0.05371 -0.01465,0.01587 -0.03784,0.01587 -0.02197,0 -0.03662,-0.01587 -0.01465,-0.01587 -0.01465,-0.05371 v -0.404053 h 0.88501 v 0.145264 l -0.832519,1.169434 v 0.01099 h 0.786133 v -0.357666 q 0,-0.03784 0.01343,-0.05371 0.01465,-0.01587 0.03784,-0.01587 0.02319,0 0.03662,0.01587 0.01465,0.01587 0.01465,0.05371 z m 2.057617,-0.50415 h -1.044922 q 0.02686,0.198974 0.166016,0.321045 0.14038,0.120849 0.346679,0.120849 0.114746,0 0.240479,-0.03784 0.125732,-0.03784 0.205078,-0.100097 0.02319,-0.01831 0.04028,-0.01831 0.01953,0 0.03418,0.01587 0.01465,0.01465 0.01465,0.0354 0,0.02075 -0.01953,0.04028 -0.05859,0.06103 -0.20874,0.114746 -0.148926,0.05249 -0.306397,0.05249 -0.263672,0 -0.440674,-0.172119 -0.175781,-0.17334 -0.175781,-0.418701 0,-0.223389 0.164795,-0.383301 0.166016,-0.159912 0.410156,-0.159912 0.251465,0 0.413819,0.164795 0.162353,0.163574 0.159912,0.424805 z m -0.10376,-0.10376 q -0.03052,-0.169678 -0.161133,-0.275879 -0.129394,-0.106201 -0.308838,-0.106201 -0.179443,0 -0.308838,0.10498 -0.129394,0.104981 -0.161132,0.2771 z m 1.426514,-0.449219 v 0.258789 q 0.200195,-0.180664 0.299072,-0.231933 0.100098,-0.05249 0.184326,-0.05249 0.09155,0 0.169678,0.06226 0.07935,0.06103 0.07935,0.09277 0,0.02319 -0.01587,0.03906 -0.01465,0.01465 -0.03784,0.01465 -0.01221,0 -0.02075,-0.0037 -0.0085,-0.0049 -0.03174,-0.02808 -0.04272,-0.04272 -0.07446,-0.05859 -0.03174,-0.01587 -0.06226,-0.01587 -0.06714,0 -0.162354,0.05371 -0.09399,0.05371 -0.327148,0.262451 v 0.561524 h 0.454101 q 0.03784,0 0.05371,0.01465 0.01587,0.01343 0.01587,0.03662 0,0.02197 -0.01587,0.03662 Q 20.119873,59 20.082031,59 h -0.804443 q -0.03662,0 -0.05249,-0.01343 -0.01587,-0.01465 -0.01587,-0.03662 0,-0.02075 0.01465,-0.03418 0.01587,-0.01465 0.05371,-0.01465 h 0.247803 v -0.854492 h -0.189209 q -0.03662,0 -0.05249,-0.01465 -0.01587,-0.01465 -0.01587,-0.03784 0,-0.02197 0.01465,-0.03662 0.01587,-0.01465 0.05371,-0.01465 z m 2.696045,0.531006 q 0,0.234375 -0.168457,0.400391 -0.167237,0.166015 -0.404053,0.166015 -0.239258,0 -0.406494,-0.166015 -0.167237,-0.167237 -0.167237,-0.400391 0,-0.234375 0.167237,-0.400391 0.167236,-0.167236 0.406494,-0.167236 0.236816,0 0.404053,0.166016 0.168457,0.166015 0.168457,0.401611 z m -0.10376,0 q 0,-0.192871 -0.13794,-0.328369 -0.136718,-0.135498 -0.332031,-0.135498 -0.195312,0 -0.333252,0.136719 -0.136719,0.135498 -0.136719,0.327148 0,0.19043 0.136719,0.327148 0.13794,0.136719 0.333252,0.136719 0.195313,0 0.332031,-0.135498 0.13794,-0.136719 0.13794,-0.328369 z m 2.053955,-0.253906 v 0.146484 h -1.046143 v -0.146484 z m 1.527832,-0.545655 v 1.223145 h 0.266113 q 0.03662,0 0.05249,0.01465 0.01587,0.01343 0.01587,0.03662 0,0.02197 -0.01587,0.03662 Q 26.104736,59 26.068115,59 h -0.635986 q -0.03662,0 -0.05249,-0.01465 -0.01587,-0.01465 -0.01587,-0.03662 0,-0.02319 0.01587,-0.03662 0.01587,-0.01465 0.05249,-0.01465 h 0.266113 V 57.674316 H 25.27832 v 0.355225 q 0,0.03784 -0.01465,0.05371 -0.01343,0.01587 -0.03662,0.01587 -0.02197,0 -0.03662,-0.01587 -0.01465,-0.01587 -0.01465,-0.05371 v -0.457764 h 1.148682 v 0.457764 q 0,0.03784 -0.01465,0.05371 -0.01343,0.01587 -0.03662,0.01587 -0.02319,0 -0.03784,-0.01587 -0.01343,-0.01587 -0.01343,-0.05371 v -0.355225 z m 1.826904,0.268555 v 0.258789 q 0.200196,-0.180664 0.299073,-0.231933 0.100097,-0.05249 0.184326,-0.05249 0.09155,0 0.169677,0.06226 0.07935,0.06103 0.07935,0.09277 0,0.02319 -0.01587,0.03906 -0.01465,0.01465 -0.03784,0.01465 -0.01221,0 -0.02075,-0.0037 -0.0085,-0.0049 -0.03174,-0.02808 -0.04273,-0.04272 -0.07446,-0.05859 -0.03174,-0.01587 -0.06226,-0.01587 -0.06714,0 -0.162353,0.05371 -0.09399,0.05371 -0.327149,0.262451 v 0.561524 h 0.454102 q 0.03784,0 0.05371,0.01465 0.01587,0.01343 0.01587,0.03662 0,0.02197 -0.01587,0.03662 Q 28.12085,59 28.083008,59 h -0.804444 q -0.03662,0 -0.05249,-0.01343 -0.01587,-0.01465 -0.01587,-0.03662 0,-0.02075 0.01465,-0.03418 0.01587,-0.01465 0.05371,-0.01465 h 0.247803 v -0.854492 h -0.189209 q -0.03662,0 -0.05249,-0.01465 -0.01587,-0.01465 -0.01587,-0.03784 0,-0.02197 0.01465,-0.03662 0.01587,-0.01465 0.05371,-0.01465 z M 30.102783,59 v -0.150146 q -0.209961,0.190429 -0.454101,0.190429 -0.150147,0 -0.228272,-0.08179 -0.101318,-0.107422 -0.101318,-0.250244 v -0.661621 h -0.13794 q -0.03662,0 -0.05249,-0.01465 -0.01587,-0.01465 -0.01587,-0.03784 0,-0.02197 0.01587,-0.03662 0.01587,-0.01465 0.05249,-0.01465 h 0.240479 v 0.765381 q 0,0.100098 0.06348,0.164795 0.06348,0.0647 0.158692,0.0647 0.250244,0 0.458984,-0.229492 v -0.661621 h -0.189209 q -0.03662,0 -0.05249,-0.01465 -0.01587,-0.01465 -0.01587,-0.03784 0,-0.02197 0.01587,-0.03662 0.01587,-0.01465 0.05249,-0.01465 h 0.291748 v 0.95459 h 0.08667 q 0.03662,0 0.05249,0.01465 0.01587,0.01343 0.01587,0.03662 0,0.02197 -0.01587,0.03662 Q 30.328613,59 30.291992,59 Z m 1.988037,-0.98999 q 0,-0.0354 0.01465,-0.05127 0.01465,-0.01587 0.03662,-0.01587 0.02319,0 0.03784,0.01587 0.01465,0.01587 0.01465,0.05371 v 0.175781 q 0,0.03662 -0.01465,0.05249 -0.01465,0.01587 -0.03784,0.01587 -0.02075,0 -0.0354,-0.01343 -0.01343,-0.01343 -0.01587,-0.04395 -0.0073,-0.07324 -0.07568,-0.12085 -0.100098,-0.06836 -0.264893,-0.06836 -0.172119,0 -0.267334,0.06958 -0.07202,0.05249 -0.07202,0.117187 0,0.07324 0.08545,0.122071 0.05859,0.03418 0.222168,0.05249 0.213623,0.02319 0.296631,0.05249 0.118408,0.04272 0.175781,0.118408 0.05859,0.07568 0.05859,0.163575 0,0.130615 -0.125733,0.233154 -0.125732,0.101318 -0.368652,0.101318 -0.24292,0 -0.397949,-0.123291 0,0.0415 -0.0049,0.05371 -0.0049,0.01221 -0.01831,0.02075 Q 31.321777,59 31.305908,59 q -0.02197,0 -0.03662,-0.01587 -0.01465,-0.01587 -0.01465,-0.05249 v -0.211182 q 0,-0.03662 0.01343,-0.05249 0.01465,-0.01587 0.03784,-0.01587 0.02197,0 0.03662,0.01587 0.01587,0.01465 0.01587,0.04028 0,0.05615 0.02808,0.09399 0.04272,0.05859 0.135498,0.09766 0.09399,0.03784 0.229492,0.03784 0.200195,0 0.297851,-0.07446 0.09766,-0.07446 0.09766,-0.15747 0,-0.09521 -0.09888,-0.152588 -0.100098,-0.05737 -0.291748,-0.07691 -0.19043,-0.01953 -0.273438,-0.05127 -0.08301,-0.03174 -0.129394,-0.09522 -0.04639,-0.06348 -0.04639,-0.136719 0,-0.131836 0.129394,-0.20874 0.129395,-0.07813 0.308838,-0.07813 0.212403,0 0.345459,0.10376 z m 1.450928,-0.06714 h 0.556641 q 0.03662,0 0.05249,0.01465 0.01587,0.01465 0.01587,0.03784 0,0.02197 -0.01587,0.03662 -0.01587,0.01465 -0.05249,0.01465 h -0.556641 v 0.682373 q 0,0.08911 0.0708,0.148926 0.07202,0.05981 0.209961,0.05981 0.10376,0 0.224609,-0.03052 0.12085,-0.03174 0.187988,-0.0708 0.02441,-0.01587 0.04028,-0.01587 0.01953,0 0.03418,0.01587 0.01465,0.01465 0.01465,0.0354 0,0.01831 -0.01587,0.03418 -0.03906,0.04028 -0.19043,0.08789 -0.150147,0.04639 -0.288086,0.04639 -0.179443,0 -0.285645,-0.08423 -0.106201,-0.08423 -0.106201,-0.227051 v -0.682373 h -0.189209 q -0.03662,0 -0.05249,-0.01465 -0.01587,-0.01465 -0.01587,-0.03784 0,-0.02197 0.01587,-0.03662 0.01587,-0.01465 0.05249,-0.01465 h 0.189209 v -0.302734 q 0,-0.03662 0.01465,-0.05249 0.01465,-0.01587 0.03662,-0.01587 0.02319,0 0.03784,0.01587 0.01465,0.01587 0.01465,0.05249 z"
         id="text30"
         style="font-size:2.5px;font-family:'Courier New', monospace;letter-spacing:0.5;opacity:0.00640001;fill:#39ff14"
         aria-label="Zero-Trust" />
      <!-- Mil-Spec along vertical trace -->
      <path
         d="m 63.79454,10.719727 v -0.103125 l 0.789551,-0.346973 v -0.01719 h -1.076367 v 0.166504 q 0,0.03223 -0.01289,0.04619 -0.01182,0.01396 -0.03223,0.01396 -0.01934,0 -0.03223,-0.01396 -0.01289,-0.01397 -0.01289,-0.04619 v -0.333007 q 0,-0.03223 0.01289,-0.04619 0.01289,-0.01396 0.03223,-0.01396 0.02041,0 0.03223,0.01396 0.01289,0.01397 0.01289,0.04619 v 0.07627 h 1.076367 v -0.05693 q 0,-0.03223 0.01182,-0.04619 0.01289,-0.01397 0.0333,-0.01397 0.02041,0 0.03223,0.01397 0.01289,0.01397 0.01289,0.04619 v 0.22129 l -0.777734,0.341601 0.777734,0.336231 v 0.221289 q 0,0.0333 -0.01289,0.04727 -0.01182,0.01396 -0.03223,0.01396 -0.02041,0 -0.0333,-0.01396 -0.01182,-0.01397 -0.01182,-0.04727 v -0.05586 h -1.076367 v 0.0752 q 0,0.0333 -0.01289,0.04726 -0.01182,0.01397 -0.03223,0.01397 -0.01934,0 -0.03223,-0.01397 -0.01289,-0.01396 -0.01289,-0.04726 v -0.331934 q 0,-0.03223 0.01289,-0.04727 0.01289,-0.01396 0.03223,-0.01396 0.02041,0 0.03223,0.01396 0.01289,0.01397 0.01289,0.04727 v 0.166504 h 1.076367 v -0.01934 z m 1.016211,1.605175 h -0.233105 v -0.133203 h 0.233105 z m -0.462988,0.0032 h -0.840039 v 0.354492 q 0,0.0333 -0.01289,0.04727 -0.01182,0.01397 -0.03223,0.01397 -0.01934,0 -0.03223,-0.01397 -0.01289,-0.01396 -0.01289,-0.04727 v -0.799218 q 0,-0.03223 0.01289,-0.04619 0.01289,-0.01396 0.03223,-0.01396 0.02041,0 0.03223,0.01396 0.01289,0.01397 0.01289,0.04619 v 0.354492 h 0.74873 v -0.263184 q 0,-0.03223 0.01289,-0.04727 0.01289,-0.01396 0.03223,-0.01396 0.02041,0 0.0333,0.01396 0.01289,0.01396 0.01289,0.04727 z m 0.417871,1.618067 h -1.25791 v 0.354492 q 0,0.0333 -0.01289,0.04726 -0.01182,0.01397 -0.03223,0.01397 -0.01934,0 -0.03223,-0.01397 -0.01289,-0.01396 -0.01289,-0.04726 v -0.799219 q 0,-0.03223 0.01289,-0.04619 0.01289,-0.01396 0.03223,-0.01396 0.02041,0 0.03223,0.01396 0.01289,0.01396 0.01289,0.04619 v 0.354492 h 1.166601 v -0.259961 q 0,-0.03223 0.01289,-0.04726 0.01289,-0.01397 0.0333,-0.01397 0.01934,0 0.03223,0.01397 0.01289,0.01397 0.01289,0.04726 z m -0.661719,2.034863 H 63.975009 V 15.06045 h 0.128906 z m 0.480176,1.482715 h 0.03008 q 0.03223,0 0.04619,0.01182 0.01396,0.01289 0.01396,0.0333 0,0.02041 -0.01396,0.03223 -0.01396,0.01289 -0.04619,0.01289 h -0.229883 q -0.03223,0 -0.04619,-0.01289 -0.01396,-0.01182 -0.01396,-0.03223 0,-0.01934 0.01289,-0.03223 0.01289,-0.01182 0.04189,-0.01289 0.09023,-0.0054 0.162207,-0.09346 0.07197,-0.08701 0.07197,-0.228809 0,-0.149316 -0.07734,-0.237402 -0.07627,-0.08809 -0.180469,-0.08809 -0.05371,0 -0.09775,0.02471 -0.04404,0.02471 -0.07197,0.06553 -0.02686,0.04082 -0.04404,0.09238 -0.01611,0.05156 -0.03437,0.161133 -0.03008,0.183691 -0.06123,0.253516 -0.04189,0.09346 -0.116015,0.140722 -0.07412,0.04834 -0.175098,0.04834 -0.154687,0 -0.264258,-0.123535 -0.108496,-0.123535 -0.108496,-0.333008 0,-0.235254 0.147168,-0.375976 h -0.05156 q -0.03223,0 -0.04619,-0.01289 -0.01396,-0.01182 -0.01396,-0.03223 0,-0.01934 0.01396,-0.03223 0.01396,-0.01289 0.04619,-0.01289 h 0.249218 q 0.0333,0 0.04727,0.01182 0.01396,0.01289 0.01396,0.0333 0,0.01934 -0.01289,0.03115 -0.01289,0.01289 -0.04189,0.01397 -0.09883,0.0054 -0.180469,0.105273 -0.08057,0.100977 -0.08057,0.270703 0,0.169727 0.08486,0.267481 0.08486,0.09883 0.200879,0.09883 0.0709,0 0.125683,-0.0376 0.05586,-0.0376 0.08809,-0.111719 0.02256,-0.05156 0.05049,-0.214843 0.0376,-0.224512 0.114941,-0.32334 0.07734,-0.09883 0.220215,-0.09883 0.141797,0 0.243847,0.112793 0.102051,0.113867 0.102051,0.299707 0,0.189062 -0.119238,0.325488 z m -0.236328,0.957421 h -0.164356 q 0.09775,0.08057 0.147168,0.17295 0.04941,0.09238 0.04941,0.218066 0,0.133203 -0.0623,0.245996 -0.0623,0.112793 -0.174024,0.174024 -0.110644,0.0623 -0.233105,0.0623 -0.194434,0 -0.333008,-0.139648 -0.1375,-0.138574 -0.1375,-0.341602 0,-0.241699 0.196582,-0.39209 h -0.543555 v 0.219141 q 0,0.03223 -0.01182,0.04619 -0.01289,0.01396 -0.0333,0.01396 -0.01934,0 -0.03223,-0.01396 -0.01289,-0.01396 -0.01289,-0.04619 V 18.20957 q 0,-0.03223 0.01289,-0.04619 0.01182,-0.01396 0.03223,-0.01396 0.02041,0 0.0333,0.01396 0.01182,0.01397 0.01182,0.04619 v 0.121387 h 1.163379 V 18.20957 q 0,-0.03223 0.01289,-0.04619 0.01289,-0.01396 0.0333,-0.01396 0.01934,0 0.03223,0.01396 0.01289,0.01397 0.01289,0.04619 z m -0.437207,0.782032 q 0.155761,0 0.266406,-0.113868 0.111719,-0.112792 0.111719,-0.276074 0,-0.164355 -0.111719,-0.278222 -0.111719,-0.113868 -0.266406,-0.113868 -0.155762,0 -0.267481,0.113868 -0.111718,0.113867 -0.111718,0.278222 0,0.162207 0.110644,0.276074 0.111719,0.113868 0.268555,0.113868 z m -0.04941,1.666407 v -0.919532 q -0.175098,0.02363 -0.28252,0.146094 -0.106347,0.123535 -0.106347,0.305078 0,0.100977 0.0333,0.211621 0.0333,0.110645 0.08809,0.180469 0.01611,0.02041 0.01611,0.03545 0,0.01719 -0.01396,0.03008 -0.01289,0.01289 -0.03115,0.01289 -0.01826,0 -0.03545,-0.01719 -0.05371,-0.05156 -0.100976,-0.183691 -0.04619,-0.131055 -0.04619,-0.269629 0,-0.232031 0.151465,-0.387793 0.152539,-0.154687 0.368457,-0.154687 0.196582,0 0.337305,0.145019 0.140722,0.146094 0.140722,0.360938 0,0.221289 -0.145019,0.36416 -0.143945,0.142871 -0.373828,0.140723 z m 0.09131,-0.09131 q 0.149317,-0.02686 0.242774,-0.141797 0.09346,-0.113867 0.09346,-0.271777 0,-0.15791 -0.09238,-0.271778 -0.09238,-0.113867 -0.243848,-0.141797 z m 0.304004,1.599804 h 0.03008 q 0.0333,0 0.04727,0.01289 0.01396,0.01289 0.01396,0.03223 0,0.02041 -0.01396,0.0333 -0.01396,0.01289 -0.04727,0.01289 h -0.204101 q -0.0333,-0.0011 -0.04727,-0.01396 -0.01397,-0.01182 -0.01397,-0.03223 0,-0.01826 0.01182,-0.03115 0.01289,-0.01182 0.04189,-0.01396 0.07627,-0.0064 0.14502,-0.100976 0.06875,-0.09346 0.06875,-0.252442 0,-0.200879 -0.125684,-0.305078 -0.125683,-0.104199 -0.28789,-0.104199 -0.175098,0 -0.288965,0.114941 -0.113867,0.114942 -0.113867,0.297559 0,0.105273 0.03867,0.213769 0.03867,0.109571 0.12461,0.197657 0.02148,0.02256 0.02148,0.03975 0,0.01826 -0.01289,0.03008 -0.01182,0.01289 -0.03008,0.01289 -0.04619,0 -0.117089,-0.108497 -0.114942,-0.175097 -0.114942,-0.389941 0,-0.218066 0.138574,-0.358789 0.139649,-0.139648 0.353418,-0.139648 0.218067,0 0.362012,0.142871 0.143945,0.143945 0.143945,0.362011 0,0.207325 -0.123535,0.348047 z"
         id="text31"
         style="font-size:2.2px;font-family:'Courier New', monospace;letter-spacing:0.3;writing-mode:tb-rl;opacity:0.00489999;fill:#39ff14"
         aria-label="Mil-Spec" />
    </pattern>
    <!-- Green border gradient -->
    <linearGradient
       id="greenBorder"
       x1="0"
       y1="0"
       x2="1"
       y2="0">
      <stop
         offset="0%"
         stop-color="#39ff14"
         stop-opacity="0.5"
         id="stop31" />
      <stop
         offset="50%"
         stop-color="#6fff4a"
         stop-opacity="0.8"
         id="stop32" />
      <stop
         offset="100%"
         stop-color="#39ff14"
         stop-opacity="0.5"
         id="stop33" />
    </linearGradient>
    <!-- Needle bracket gradients -->
    <linearGradient
       id="metalGrad"
       x1="0"
       y1="0"
       x2="0"
       y2="1">
      <stop
         offset="0%"
         stop-color="#e3e3e3"
         id="stop34" />
      <stop
         offset="45%"
         stop-color="#bdbdbd"
         id="stop35" />
      <stop
         offset="60%"
         stop-color="#f2f2f2"
         id="stop36" />
      <stop
         offset="100%"
         stop-color="#a9a9a9"
         id="stop37" />
    </linearGradient>
    <!-- Corner joint gradient -->
    <radialGradient
       id="joint"
       cx="50%"
       cy="50%"
       r="50%">
      <stop
         offset="0"
         stop-color="#e7edf5"
         id="stop38" />
      <stop
         offset="0.4"
         stop-color="#aeb6c0"
         id="stop39" />
      <stop
         offset="0.75"
         stop-color="#323840"
         id="stop40" />
      <stop
         offset="1"
         stop-color="#0a0c10"
         id="stop41" />
    </radialGradient>
    <!-- Frame shadow -->
    <filter
       id="frameShadow"
       x="-0.0016853933"
       y="-0.01"
       width="1.0033708"
       height="1.02">
      <feDropShadow
         dx="0"
         dy="6"
         stdDeviation="22"
         flood-color="#000"
         flood-opacity="0.6" />
    </filter>
    <!-- Inner glow -->
    <filter
       id="innerGlow"
       x="-0.0077586207"
       y="-0.051923077"
       width="1.0155172"
       height="1.1038462">
      <feGaussianBlur
         in="SourceAlpha"
         stdDeviation="2.5"
         result="blur"
         id="feGaussianBlur41" />
      <feComposite
         in="blur"
         in2="SourceAlpha"
         operator="arithmetic"
         k2="-1"
         k3="1"
         result="innerShadow"
         id="feComposite41" />
      <feFlood
         flood-color="#39ff14"
         flood-opacity="0.2"
         result="flood"
         id="feFlood41" />
      <feComposite
         in="flood"
         in2="innerShadow"
         operator="in"
         result="coloredInner"
         id="feComposite42" />
      <feMerge
         id="feMerge43">
        <feMergeNode
           in="coloredInner"
           id="feMergeNode42" />
        <feMergeNode
           in="SourceGraphic"
           id="feMergeNode43" />
      </feMerge>
    </filter>
    <!-- Circuit glow -->
    <filter
       id="circuitGlow"
       x="0"
       y="0"
       width="1"
       height="1">
      <feDropShadow
         dx="0"
         dy="0"
         stdDeviation="2"
         flood-color="#39ff14"
         flood-opacity="0.6" />
    </filter>
    <!-- Pure Chrome Gradient (for text) -->
    <linearGradient
       id="chrome_grad_xirod"
       x1="0%"
       y1="0%"
       x2="0%"
       y2="100%">
      <stop
         offset="0%"
         stop-color="#ffffff"
         stop-opacity="1"
         id="stop43" />
      <stop
         offset="3%"
         stop-color="#c0c0c0"
         stop-opacity="1"
         id="stop44" />
      <stop
         offset="8%"
         stop-color="#404040"
         stop-opacity="1"
         id="stop45" />
      <stop
         offset="12%"
         stop-color="#909090"
         stop-opacity="1"
         id="stop46" />
      <stop
         offset="25%"
         stop-color="#e8e8e8"
         stop-opacity="1"
         id="stop47" />
      <stop
         offset="45%"
         stop-color="#a0a0a0"
         stop-opacity="1"
         id="stop48" />
      <stop
         offset="55%"
         stop-color="#505050"
         stop-opacity="1"
         id="stop49" />
      <stop
         offset="70%"
         stop-color="#b0b0b0"
         stop-opacity="1"
         id="stop50" />
      <stop
         offset="85%"
         stop-color="#f0f0f0"
         stop-opacity="1"
         id="stop51" />
      <stop
         offset="92%"
         stop-color="#606060"
         stop-opacity="1"
         id="stop52" />
      <stop
         offset="100%"
         stop-color="#303030"
         stop-opacity="1"
         id="stop53" />
    </linearGradient>
    <!-- Dramatic 45 Shadow Filter (for text) -->
    <filter
       id="sharp_shadow_xirod"
       x="-0.086102824"
       y="-0.65413534"
       width="1.2414838"
       height="2.8345865">
      <feOffset
         in="SourceAlpha"
         dx="35"
         dy="35"
         result="offsetShadow"
         id="feOffset53" />
      <feGaussianBlur
         in="offsetShadow"
         stdDeviation="17.5"
         result="blurredShadow"
         id="feGaussianBlur53" />
      <feFlood
         flood-color="#000000"
         flood-opacity="0.7"
         id="feFlood53" />
      <feComposite
         in2="blurredShadow"
         operator="in"
         result="shadow"
         id="feComposite53" />
      <feMerge
         id="feMerge54">
        <feMergeNode
           in="shadow"
           id="feMergeNode53" />
        <feMergeNode
           in="SourceGraphic"
           id="feMergeNode54" />
      </feMerge>
    </filter>
    <!-- Top Highlight Mask (for text) -->
    <mask
       id="top_mask_xirod">
      <rect
         x="0"
         y="0"
         width="900"
         height="40"
         fill="white"
         id="rect54" />
    </mask>
    <!-- Brushed Metal Texture Pattern (for backdrop) -->
    <pattern
       id="brushedMetal"
       patternUnits="userSpaceOnUse"
       width="8"
       height="8"
       patternTransform="rotate(-18)">
      <rect
         width="8"
         height="8"
         fill="none"
         id="rect55" />
      <rect
         x="0"
         y="0"
         width="1"
         height="8"
         fill="#ffffff"
         opacity="0.04"
         id="rect56" />
      <rect
         x="4"
         y="0"
         width="1"
         height="8"
         fill="#ffffff"
         opacity="0.03"
         id="rect57" />
    </pattern>
    <!-- Diamond Mesh Texture Pattern -->
    <pattern
       id="diamondMesh"
       patternUnits="userSpaceOnUse"
       width="12"
       height="12">
      <rect
         width="12"
         height="12"
         fill="rgba(0,0,0,0.02)"
         id="rect58" />
      <!-- Diamond mesh grid lines -->
      <path
         d="M 6,0 L 12,6 L 6,12 L 0,6 Z"
         stroke="#39ff14"
         stroke-width="0.6"
         fill="none"
         opacity="0.25"
         id="path58" />
      <!-- Secondary smaller diamond -->
      <path
         d="M 6,2 L 10,6 L 6,10 L 2,6 Z"
         stroke="#39ff14"
         stroke-width="0.4"
         fill="none"
         opacity="0.15"
         id="path59" />
      <!-- Center cross detail -->
      <line
         x1="6"
         y1="3"
         x2="6"
         y2="9"
         stroke="#39ff14"
         stroke-width="0.4"
         opacity="0.18"
         id="line59" />
      <line
         x1="3"
         y1="6"
         x2="9"
         y2="6"
         stroke="#39ff14"
         stroke-width="0.4"
         opacity="0.18"
         id="line60" />
      <!-- Corner dots -->
      <circle
         cx="6"
         cy="0"
         r="0.5"
         fill="#39ff14"
         opacity="0.2"
         id="circle60" />
      <circle
         cx="12"
         cy="6"
         r="0.5"
         fill="#39ff14"
         opacity="0.2"
         id="circle61" />
      <circle
         cx="6"
         cy="12"
         r="0.5"
         fill="#39ff14"
         opacity="0.2"
         id="circle62" />
      <circle
         cx="0"
         cy="6"
         r="0.5"
         fill="#39ff14"
         opacity="0.2"
         id="circle63" />
      <!-- Center node -->
      <circle
         cx="6"
         cy="6"
         r="0.4"
         fill="#39ff14"
         opacity="0.25"
         id="circle64" />
    </pattern>
    <!-- Text mask for brushed metal overlay -->
    <mask
       id="textMask">
      <path
         d="M 213.45005,113 V 62.175 h 56.525 c -0.95,6.555 -4.655,10.165 -11.21,10.165 h -37.81 v 14.915 h 34.39 c 20.14,0 30.305,-9.405 30.305,-28.025 V 46.5 h -88.35 V 113 Z M 379.60499,46.5 h -16.15 v 25.84 h -51.585 V 46.5 h -16.15 V 113 h 16.15 V 87.35 h 51.585 V 113 h 16.15 z m 28.595,0 h -16.15 V 113 h 16.15 z m 45.21995,0 c -21.185,0 -33.155,12.35 -33.155,33.155 V 113 h 87.305 V 72.34 h -28.215 v 14.915 h 12.065 v 9.975 h -55.1 V 80.225 c 0,-14.06 3.895,-18.05 17.385,-18.05 h 53.485 V 46.5 Z m 149.34004,0 h -84.36 v 33.44 c 0,20.33 12.635,33.06 33.25,33.06 h 51.11 V 97.23 h -50.825 c -9.88,0 -14.535,-3.515 -16.53,-9.975 h 65.645 V 72.34 h -66.5 V 62.175 h 68.21 z m 99.74998,0 h -15.77 v 39.045 c 0,0.95 0.095,2.375 0.285,4.37 l -2.945,-3.135 c -16.625,-18.05 -36.385,-33.44 -57.665,-40.28 h -13.965 V 113 h 15.77 V 68.35 c 0,-0.665 -0.095,-2.28 -0.285,-4.655 1.615,0.57 3.135,1.235 4.37,1.615 17.29,6.555 34.865,22.8 53.105,47.69 h 17.1 z"
         id="text64"
         style="font-weight:bold;font-size:95px;font-family:Xirod, Impact, 'Arial Black', sans-serif;text-anchor:middle;fill:#ffffff"
         aria-label="PhiGEN" />
    </mask>
    <!-- Font Definitions -->
    <style
       type="text/css"
       id="style64">
      @font-face {
        font-family: 'Xirod';
        src: url('file:///E:\PythonProjects\PhiGEN\FONTS\Xirod.otf') format('opentype');
      }
      @font-face {
        font-family: 'White Rabbit';
        src: url('file:///E:\PythonProjects\PhiGEN\FONTS\WHITERABBIT\whitrabt.ttf') format('truetype');
      }
    </style>
  </defs>
  <!-- BACKDROP FRAME GROUP -->
  <g
     filter="url(#frameShadow)"
     id="g85">
    <!-- Outer chrome frame -->
    <rect
       x="5"
       y="5"
       width="890"
       height="150"
       rx="8"
       ry="8"
       fill="url(#chromeFrame)"
       stroke="url(#chromeStroke)"
       stroke-width="3"
       id="rect64" />
    <!-- Specular highlight -->
    <rect
       x="10"
       y="8"
       width="880"
       height="15"
       rx="5"
       ry="5"
       fill="#ffffff"
       opacity="0.15"
       id="rect65" />
    <!-- Brushed metal backdrop layer -->
    <rect
       x="15"
       y="15"
       width="870"
       height="130"
       rx="5"
       ry="5"
       fill="url(#brushedMetal)"
       id="rect66" />
    <!-- Inner field with circuit pattern (on top of brushed metal) -->
    <rect
       x="15"
       y="15"
       width="870"
       height="130"
       rx="5"
       ry="5"
       fill="url(#circuitPattern)"
       stroke="url(#greenBorder)"
       stroke-width="1.5"
       filter="url(#innerGlow)"
       id="rect67" />
    <!-- Needle Bracket Corner Arms -->
    <g
       id="needle_brackets"
       opacity="0.95">
      <!-- TOP-LEFT NEEDLE BRACKET -->
      <g
         id="tl_needle">
        <!-- Horizontal needle arm with beveled tip -->
        <path
           fill="url(#metalGrad)"
           stroke="#5f5f5f"
           stroke-width="1.5"
           d="M25 20 H50 L62 23 L50 27 H25 Z"
           id="path67" />
        <!-- Lumen near the beveled tip -->
        <ellipse
           fill="#ededed"
           stroke="#6f6f6f"
           stroke-width="0.8"
           cx="58"
           cy="24"
           rx="2"
           ry="1.2"
           transform="rotate(12 58 24)"
           id="ellipse67" />
        <!-- Edge highlight -->
        <path
           stroke="rgba(255,255,255,0.6)"
           stroke-width="0.8"
           fill="none"
           d="M25 20 H50 L62 23"
           id="path68" />
        <!-- Vertical needle arm with beveled tip -->
        <path
           fill="url(#metalGrad)"
           stroke="#5f5f5f"
           stroke-width="1.5"
           d="M20 25 V50 L23 62 L27 50 V25 Z"
           id="path69" />
        <!-- Lumen near the beveled tip -->
        <ellipse
           fill="#ededed"
           stroke="#6f6f6f"
           stroke-width="0.8"
           cx="24"
           cy="58"
           rx="1.2"
           ry="2"
           transform="rotate(12 24 58)"
           id="ellipse69" />
        <!-- Edge highlight -->
        <path
           stroke="rgba(255,255,255,0.6)"
           stroke-width="0.8"
           fill="none"
           d="M27 25 V50 L23 62"
           id="path70" />
        <!-- Corner joint -->
        <circle
           cx="25"
           cy="25"
           r="10"
           fill="url(#joint)"
           id="circle70" />
        <circle
           cx="25"
           cy="25"
           r="3"
           fill="#0a0c10"
           id="circle71" />
      </g>
      <!-- TOP-RIGHT NEEDLE BRACKET -->
      <g
         id="tr_needle">
        <!-- Horizontal needle arm with beveled tip (reversed) -->
        <path
           fill="url(#metalGrad)"
           stroke="#5f5f5f"
           stroke-width="1.5"
           d="M875 20 H850 L838 23 L850 27 H875 Z"
           id="path71" />
        <!-- Lumen near the beveled tip -->
        <ellipse
           fill="#ededed"
           stroke="#6f6f6f"
           stroke-width="0.8"
           cx="842"
           cy="24"
           rx="2"
           ry="1.2"
           transform="rotate(-12 842 24)"
           id="ellipse71" />
        <!-- Edge highlight -->
        <path
           stroke="rgba(255,255,255,0.6)"
           stroke-width="0.8"
           fill="none"
           d="M875 20 H850 L838 23"
           id="path72" />
        <!-- Vertical needle arm with beveled tip -->
        <path
           fill="url(#metalGrad)"
           stroke="#5f5f5f"
           stroke-width="1.5"
           d="M880 25 V50 L877 62 L873 50 V25 Z"
           id="path73" />
        <!-- Lumen near the beveled tip -->
        <ellipse
           fill="#ededed"
           stroke="#6f6f6f"
           stroke-width="0.8"
           cx="876"
           cy="58"
           rx="1.2"
           ry="2"
           transform="rotate(-12 876 58)"
           id="ellipse73" />
        <!-- Edge highlight -->
        <path
           stroke="rgba(255,255,255,0.6)"
           stroke-width="0.8"
           fill="none"
           d="M873 25 V50 L877 62"
           id="path74" />
        <!-- Corner joint -->
        <circle
           cx="875"
           cy="25"
           r="10"
           fill="url(#joint)"
           id="circle74" />
        <circle
           cx="875"
           cy="25"
           r="3"
           fill="#0a0c10"
           id="circle75" />
      </g>
      <!-- BOTTOM-LEFT NEEDLE BRACKET -->
      <g
         id="bl_needle">
        <!-- Horizontal needle arm with beveled tip -->
        <path
           fill="url(#metalGrad)"
           stroke="#5f5f5f"
           stroke-width="1.5"
           d="M25 140 H50 L62 137 L50 133 H25 Z"
           id="path75" />
        <!-- Lumen near the beveled tip -->
        <ellipse
           fill="#ededed"
           stroke="#6f6f6f"
           stroke-width="0.8"
           cx="58"
           cy="136"
           rx="2"
           ry="1.2"
           transform="rotate(-12 58 136)"
           id="ellipse75" />
        <!-- Edge highlight -->
        <path
           stroke="rgba(255,255,255,0.6)"
           stroke-width="0.8"
           fill="none"
           d="M25 133 H50 L62 137"
           id="path76" />
        <!-- Vertical needle arm with beveled tip (reversed) -->
        <path
           fill="url(#metalGrad)"
           stroke="#5f5f5f"
           stroke-width="1.5"
           d="M20 135 V110 L23 98 L27 110 V135 Z"
           id="path77" />
        <!-- Lumen near the beveled tip -->
        <ellipse
           fill="#ededed"
           stroke="#6f6f6f"
           stroke-width="0.8"
           cx="24"
           cy="102"
           rx="1.2"
           ry="2"
           transform="rotate(-12 24 102)"
           id="ellipse77" />
        <!-- Edge highlight -->
        <path
           stroke="rgba(255,255,255,0.6)"
           stroke-width="0.8"
           fill="none"
           d="M27 135 V110 L23 98"
           id="path78" />
        <!-- Corner joint -->
        <circle
           cx="25"
           cy="135"
           r="10"
           fill="url(#joint)"
           id="circle78" />
        <circle
           cx="25"
           cy="135"
           r="3"
           fill="#0a0c10"
           id="circle79" />
      </g>
      <!-- BOTTOM-RIGHT NEEDLE BRACKET -->
      <g
         id="br_needle">
        <!-- Horizontal needle arm with beveled tip (reversed) -->
        <path
           fill="url(#metalGrad)"
           stroke="#5f5f5f"
           stroke-width="1.5"
           d="M875 140 H850 L838 137 L850 133 H875 Z"
           id="path79" />
        <!-- Lumen near the beveled tip -->
        <ellipse
           fill="#ededed"
           stroke="#6f6f6f"
           stroke-width="0.8"
           cx="842"
           cy="136"
           rx="2"
           ry="1.2"
           transform="rotate(12 842 136)"
           id="ellipse79" />
        <!-- Edge highlight -->
        <path
           stroke="rgba(255,255,255,0.6)"
           stroke-width="0.8"
           fill="none"
           d="M875 133 H850 L838 137"
           id="path80" />
        <!-- Vertical needle arm with beveled tip (reversed) -->
        <path
           fill="url(#metalGrad)"
           stroke="#5f5f5f"
           stroke-width="1.5"
           d="M880 135 V110 L877 98 L873 110 V135 Z"
           id="path81" />
        <!-- Lumen near the beveled tip -->
        <ellipse
           fill="#ededed"
           stroke="#6f6f6f"
           stroke-width="0.8"
           cx="876"
           cy="102"
           rx="1.2"
           ry="2"
           transform="rotate(12 876 102)"
           id="ellipse81" />
        <!-- Edge highlight -->
        <path
           stroke="rgba(255,255,255,0.6)"
           stroke-width="0.8"
           fill="none"
           d="M873 135 V110 L877 98"
           id="path82" />
        <!-- Corner joint -->
        <circle
           cx="875"
           cy="135"
           r="10"
           fill="url(#joint)"
           id="circle82" />
        <circle
           cx="875"
           cy="135"
           r="3"
           fill="#0a0c10"
           id="circle83" />
      </g>
    </g>
    <!-- LED indicator dots -->
    <circle
       cx="25"
       cy="80"
       r="2"
       fill="#39ff14"
       opacity="0.8"
       filter="url(#circuitGlow)"
       id="circle84" />
    <circle
       cx="875"
       cy="80"
       r="2"
       fill="#39ff14"
       opacity="0.8"
       filter="url(#circuitGlow)"
       id="circle85" />
  </g>
  <!-- PHIGEN TEXT GROUP (on top of backdrop) -->
  <!-- 3D Depth Layers (shadows) -->
  <g
     id="depth_layers_xirod">
    <path
       d="M 228.45005,128 V 77.175 h 56.525 c -0.95,6.555 -4.655,10.165 -11.21,10.165 h -37.81 v 14.915 h 34.39 c 20.14,0 30.305,-9.405 30.305,-28.025 V 61.5 h -88.35 V 128 Z M 394.60499,61.5 h -16.15 v 25.84 h -51.585 V 61.5 h -16.15 V 128 h 16.15 v -25.65 h 51.585 V 128 h 16.15 z m 28.595,0 h -16.15 V 128 h 16.15 z m 45.21995,0 c -21.185,0 -33.155,12.35 -33.155,33.155 V 128 h 87.305 V 87.34 h -28.215 v 14.915 h 12.065 v 9.975 h -55.1 V 95.225 c 0,-14.06 3.895,-18.05 17.385,-18.05 h 53.485 V 61.5 Z m 149.34004,0 h -84.36 v 33.44 c 0,20.33 12.635,33.06 33.25,33.06 h 51.11 v -15.77 h -50.825 c -9.88,0 -14.535,-3.515 -16.53,-9.975 h 65.645 V 87.34 h -66.5 V 77.175 h 68.21 z m 99.74998,0 h -15.77 v 39.045 c 0,0.95 0.095,2.375 0.285,4.37 l -2.945,-3.135 c -16.625,-18.05 -36.385,-33.44 -57.665,-40.28 h -13.965 V 128 h 15.77 V 83.35 c 0,-0.665 -0.095,-2.28 -0.285,-4.655 1.615,0.57 3.135,1.235 4.37,1.615 17.29,6.555 34.865,22.8 53.105,47.69 h 17.1 z"
       id="text85"
       style="font-weight:bold;font-size:95px;font-family:Xirod, Impact, 'Arial Black', sans-serif;text-anchor:middle;shape-rendering:crispEdges"
       aria-label="PhiGEN" />
    <path
       d="M 225.45005,125 V 74.175 h 56.525 c -0.95,6.555 -4.655,10.165 -11.21,10.165 h -37.81 v 14.915 h 34.39 c 20.14,0 30.305,-9.405 30.305,-28.025 V 58.5 h -88.35 V 125 Z M 391.60499,58.5 h -16.15 v 25.84 h -51.585 V 58.5 h -16.15 V 125 h 16.15 V 99.35 h 51.585 V 125 h 16.15 z m 28.595,0 h -16.15 V 125 h 16.15 z m 45.21995,0 c -21.185,0 -33.155,12.35 -33.155,33.155 V 125 h 87.305 V 84.34 h -28.215 v 14.915 h 12.065 v 9.975 h -55.1 V 92.225 c 0,-14.06 3.895,-18.05 17.385,-18.05 h 53.485 V 58.5 Z m 149.34004,0 h -84.36 v 33.44 c 0,20.33 12.635,33.06 33.25,33.06 h 51.11 v -15.77 h -50.825 c -9.88,0 -14.535,-3.515 -16.53,-9.975 h 65.645 V 84.34 h -66.5 V 74.175 h 68.21 z m 99.74998,0 h -15.77 v 39.045 c 0,0.95 0.095,2.375 0.285,4.37 l -2.945,-3.135 c -16.625,-18.05 -36.385,-33.44 -57.665,-40.28 h -13.965 V 125 h 15.77 V 80.35 c 0,-0.665 -0.095,-2.28 -0.285,-4.655 1.615,0.57 3.135,1.235 4.37,1.615 17.29,6.555 34.865,22.8 53.105,47.69 h 17.1 z"
       id="text86"
       style="font-weight:bold;font-size:95px;font-family:Xirod, Impact, 'Arial Black', sans-serif;text-anchor:middle;shape-rendering:crispEdges"
       aria-label="PhiGEN" />
    <path
       d="M 222.45005,122 V 71.175 h 56.525 c -0.95,6.555 -4.655,10.165 -11.21,10.165 h -37.81 v 14.915 h 34.39 c 20.14,0 30.305,-9.405 30.305,-28.025 V 55.5 h -88.35 V 122 Z M 388.60499,55.5 h -16.15 v 25.84 h -51.585 V 55.5 h -16.15 V 122 h 16.15 V 96.35 h 51.585 V 122 h 16.15 z m 28.595,0 h -16.15 V 122 h 16.15 z m 45.21995,0 c -21.185,0 -33.155,12.35 -33.155,33.155 V 122 h 87.305 V 81.34 h -28.215 v 14.915 h 12.065 v 9.975 h -55.1 V 89.225 c 0,-14.06 3.895,-18.05 17.385,-18.05 h 53.485 V 55.5 Z m 149.34004,0 h -84.36 v 33.44 c 0,20.33 12.635,33.06 33.25,33.06 h 51.11 v -15.77 h -50.825 c -9.88,0 -14.535,-3.515 -16.53,-9.975 h 65.645 V 81.34 h -66.5 V 71.175 h 68.21 z m 99.74998,0 h -15.77 v 39.045 c 0,0.95 0.095,2.375 0.285,4.37 l -2.945,-3.135 c -16.625,-18.05 -36.385,-33.44 -57.665,-40.28 h -13.965 V 122 h 15.77 V 77.35 c 0,-0.665 -0.095,-2.28 -0.285,-4.655 1.615,0.57 3.135,1.235 4.37,1.615 17.29,6.555 34.865,22.8 53.105,47.69 h 17.1 z"
       id="text87"
       style="font-weight:bold;font-size:95px;font-family:Xirod, Impact, 'Arial Black', sans-serif;text-anchor:middle;shape-rendering:crispEdges"
       aria-label="PhiGEN" />
    <path
       d="M 219.45005,119 V 68.175 h 56.525 c -0.95,6.555 -4.655,10.165 -11.21,10.165 h -37.81 v 14.915 h 34.39 c 20.14,0 30.305,-9.405 30.305,-28.025 V 52.5 h -88.35 V 119 Z M 385.60499,52.5 h -16.15 v 25.84 h -51.585 V 52.5 h -16.15 V 119 h 16.15 V 93.35 h 51.585 V 119 h 16.15 z m 28.595,0 h -16.15 V 119 h 16.15 z m 45.21995,0 c -21.185,0 -33.155,12.35 -33.155,33.155 V 119 h 87.305 V 78.34 h -28.215 v 14.915 h 12.065 v 9.975 h -55.1 V 86.225 c 0,-14.06 3.895,-18.05 17.385,-18.05 h 53.485 V 52.5 Z m 149.34004,0 h -84.36 v 33.44 c 0,20.33 12.635,33.06 33.25,33.06 h 51.11 v -15.77 h -50.825 c -9.88,0 -14.535,-3.515 -16.53,-9.975 h 65.645 V 78.34 h -66.5 V 68.175 h 68.21 z m 99.74998,0 h -15.77 v 39.045 c 0,0.95 0.095,2.375 0.285,4.37 l -2.945,-3.135 c -16.625,-18.05 -36.385,-33.44 -57.665,-40.28 h -13.965 V 119 h 15.77 V 74.35 c 0,-0.665 -0.095,-2.28 -0.285,-4.655 1.615,0.57 3.135,1.235 4.37,1.615 17.29,6.555 34.865,22.8 53.105,47.69 h 17.1 z"
       id="text88"
       style="font-weight:bold;font-size:95px;font-family:Xirod, Impact, 'Arial Black', sans-serif;text-anchor:middle;shape-rendering:crispEdges"
       aria-label="PhiGEN" />
    <path
       d="M 216.45005,116 V 65.175 h 56.525 c -0.95,6.555 -4.655,10.165 -11.21,10.165 h -37.81 v 14.915 h 34.39 c 20.14,0 30.305,-9.405 30.305,-28.025 V 49.5 h -88.35 V 116 Z M 382.60499,49.5 h -16.15 v 25.84 h -51.585 V 49.5 h -16.15 V 116 h 16.15 V 90.35 h 51.585 V 116 h 16.15 z m 28.595,0 h -16.15 V 116 h 16.15 z m 45.21995,0 c -21.185,0 -33.155,12.35 -33.155,33.155 V 116 h 87.305 V 75.34 h -28.215 v 14.915 h 12.065 v 9.975 h -55.1 V 83.225 c 0,-14.06 3.895,-18.05 17.385,-18.05 h 53.485 V 49.5 Z m 149.34004,0 h -84.36 v 33.44 c 0,20.33 12.635,33.06 33.25,33.06 h 51.11 v -15.77 h -50.825 c -9.88,0 -14.535,-3.515 -16.53,-9.975 h 65.645 V 75.34 h -66.5 V 65.175 h 68.21 z m 99.74998,0 h -15.77 v 39.045 c 0,0.95 0.095,2.375 0.285,4.37 l -2.945,-3.135 c -16.625,-18.05 -36.385,-33.44 -57.665,-40.28 h -13.965 V 116 h 15.77 V 71.35 c 0,-0.665 -0.095,-2.28 -0.285,-4.655 1.615,0.57 3.135,1.235 4.37,1.615 17.29,6.555 34.865,22.8 53.105,47.69 h 17.1 z"
       id="text89"
       style="font-weight:bold;font-size:95px;font-family:Xirod, Impact, 'Arial Black', sans-serif;text-anchor:middle;shape-rendering:crispEdges"
       aria-label="PhiGEN" />
  </g>
  <!-- Main Text -->
  <g
     id="main_text_xirod">
    <path
       d="M 213.45005,113 V 62.175 h 56.525 c -0.95,6.555 -4.655,10.165 -11.21,10.165 h -37.81 v 14.915 h 34.39 c 20.14,0 30.305,-9.405 30.305,-28.025 V 46.5 h -88.35 V 113 Z M 379.60499,46.5 h -16.15 v 25.84 h -51.585 V 46.5 h -16.15 V 113 h 16.15 V 87.35 h 51.585 V 113 h 16.15 z m 28.595,0 h -16.15 V 113 h 16.15 z m 45.21995,0 c -21.185,0 -33.155,12.35 -33.155,33.155 V 113 h 87.305 V 72.34 h -28.215 v 14.915 h 12.065 v 9.975 h -55.1 V 80.225 c 0,-14.06 3.895,-18.05 17.385,-18.05 h 53.485 V 46.5 Z m 149.34004,0 h -84.36 v 33.44 c 0,20.33 12.635,33.06 33.25,33.06 h 51.11 V 97.23 h -50.825 c -9.88,0 -14.535,-3.515 -16.53,-9.975 h 65.645 V 72.34 h -66.5 V 62.175 h 68.21 z m 99.74998,0 h -15.77 v 39.045 c 0,0.95 0.095,2.375 0.285,4.37 l -2.945,-3.135 c -16.625,-18.05 -36.385,-33.44 -57.665,-40.28 h -13.965 V 113 h 15.77 V 68.35 c 0,-0.665 -0.095,-2.28 -0.285,-4.655 1.615,0.57 3.135,1.235 4.37,1.615 17.29,6.555 34.865,22.8 53.105,47.69 h 17.1 z"
       id="text90"
       style="font-weight:bold;font-size:95px;font-family:Xirod, Impact, 'Arial Black', sans-serif;text-anchor:middle;fill:url(#chrome_grad_xirod);stroke:#101010;stroke-width:3;stroke-linecap:square;filter:url(#sharp_shadow_xirod);shape-rendering:crispEdges"
       aria-label="PhiGEN" />
    <!-- Top Highlight -->
    <path
       d="M 213.45005,108 V 57.175 h 56.525 c -0.95,6.555 -4.655,10.165 -11.21,10.165 h -37.81 v 14.915 h 34.39 c 20.14,0 30.305,-9.405 30.305,-28.025 V 41.5 h -88.35 V 108 Z M 379.60499,41.5 h -16.15 v 25.84 h -51.585 V 41.5 h -16.15 V 108 h 16.15 V 82.35 h 51.585 V 108 h 16.15 z m 28.595,0 h -16.15 V 108 h 16.15 z m 45.21995,0 c -21.185,0 -33.155,12.35 -33.155,33.155 V 108 h 87.305 V 67.34 h -28.215 v 14.915 h 12.065 v 9.975 h -55.1 V 75.225 c 0,-14.06 3.895,-18.05 17.385,-18.05 h 53.485 V 41.5 Z m 149.34004,0 h -84.36 v 33.44 c 0,20.33 12.635,33.06 33.25,33.06 h 51.11 V 92.23 h -50.825 c -9.88,0 -14.535,-3.515 -16.53,-9.975 h 65.645 V 67.34 h -66.5 V 57.175 h 68.21 z m 99.74998,0 h -15.77 v 39.045 c 0,0.95 0.095,2.375 0.285,4.37 l -2.945,-3.135 c -16.625,-18.05 -36.385,-33.44 -57.665,-40.28 h -13.965 V 108 h 15.77 V 63.35 c 0,-0.665 -0.095,-2.28 -0.285,-4.655 1.615,0.57 3.135,1.235 4.37,1.615 17.29,6.555 34.865,22.8 53.105,47.69 h 17.1 z"
       id="text91"
       mask="url(#top_mask_xirod)"
       style="font-weight:bold;font-size:95px;font-family:Xirod, Impact, 'Arial Black', sans-serif;text-anchor:middle;opacity:0.16;fill:#ffffff;shape-rendering:crispEdges"
       aria-label="PhiGEN" />
    <!-- Diamond Mesh Texture Overlay -->
    <rect
       x="0"
       y="0"
       width="900"
       height="160"
       fill="url(#diamondMesh)"
       mask="url(#textMask)"
       opacity="0.8"
       id="rect91" />
  </g>
  <!-- VERSION TEXT -->
  <g
     id="version_text">
    <!-- Version shadow -->
    <path
       d="m 728.28571,120 q -0.41904,0 -0.73333,-0.31429 l -4.19048,-4.19047 q -0.31428,-0.31429 -0.31428,-0.73334 v -4.19047 q 0,-0.41905 0.31428,-0.73333 0.31429,-0.31429 0.73334,-0.31429 0.41905,0 0.73333,0.31429 0.31429,0.31428 0.31429,0.73333 v 3.18476 l 3.14285,3.14286 3.14286,-3.14286 v -3.18476 q 0,-0.41905 0.31429,-0.73333 0.31428,-0.31429 0.73333,-0.31429 0.41905,0 0.73333,0.31429 0.31429,0.31428 0.31429,0.73333 v 4.19047 q 0,0.41905 -0.31429,0.73334 l -4.19047,4.19047 Q 728.70476,120 728.28571,120 Z m 10.47619,-10.47619 q -0.41905,0 -0.73333,-0.31429 -0.31429,-0.31428 -0.31429,-0.73333 0,-0.41905 0.31429,-0.73333 l 2.09523,-2.09524 q 0.31429,-0.31429 0.73334,-0.31429 0.41904,0 0.73333,0.31429 0.31429,0.31428 0.31429,0.73333 v 11.52381 h 1.04761 q 0.41905,0 0.73334,0.31429 0.31428,0.31428 0.31428,0.73333 0,0.41905 -0.31428,0.73333 Q 743.37142,120 742.95237,120 h -4.19047 q -0.41905,0 -0.73333,-0.31429 -0.31429,-0.31428 -0.31429,-0.73333 0,-0.41905 0.31429,-0.73333 0.31428,-0.31429 0.73333,-0.31429 h 1.04762 v -9.05143 l -0.31429,0.35619 q -0.31428,0.31429 -0.73333,0.31429 z m 12.57142,6.28571 h 2.09524 q 0.41905,0 0.73333,0.31429 0.31429,0.31429 0.31429,0.73333 v 2.09524 q 0,0.41905 -0.31429,0.73333 Q 753.84761,120 753.42856,120 h -2.09524 q -0.41905,0 -0.73333,-0.31429 -0.31429,-0.31428 -0.31429,-0.73333 v -2.09524 q 0,-0.41904 0.31429,-0.73333 0.31428,-0.31429 0.73333,-0.31429 z M 763.90474,120 q -1.25714,0 -2.2,-0.94286 -0.94285,-0.94285 -0.94285,-2.2 v -8.38095 q 0,-1.25714 0.94285,-2.2 0.94286,-0.94286 2.2,-0.94286 h 4.19048 q 1.25714,0 2.2,0.94286 0.94286,0.94286 0.94286,2.2 v 8.38095 q 0,1.25715 -0.94286,2.2 -0.94286,0.94286 -2.2,0.94286 z m -1.04762,-3.14286 q 0,0.41905 0.31429,0.73334 0.31429,0.31428 0.73333,0.31428 h 4.19048 q 0.41905,0 0.73333,-0.31428 0.31429,-0.31429 0.31429,-0.73334 V 111.2 Z m 0,-2.72381 6.28572,-5.65714 q 0,-0.41905 -0.31429,-0.73333 -0.31428,-0.31429 -0.73333,-0.31429 h -4.19048 q -0.41904,0 -0.73333,0.31429 -0.31429,0.31428 -0.31429,0.73333 z M 776.47617,120 q -1.25715,0 -2.2,-0.94286 -0.94286,-0.94285 -0.94286,-2.2 0,-1.25714 0.94286,-2.2 0.94285,-0.94285 2.2,-0.94285 h 5.23809 v -1.04762 q 0,-0.41905 -0.31428,-0.73334 -0.31429,-0.31428 -0.73334,-0.31428 h -4.19047 q -0.41905,0 -0.73334,-0.31429 -0.31428,-0.31428 -0.31428,-0.73333 0,-0.41905 0.31428,-0.73333 0.31429,-0.31429 0.73334,-0.31429 h 4.19047 q 1.25715,0 2.2,0.94286 0.94286,0.94285 0.94286,2.2 v 6.28571 q 0,0.41905 -0.31429,0.73333 Q 783.18093,120 782.76188,120 Z m 5.23809,-4.19048 h -5.23809 q -0.41905,0 -0.73334,0.31429 -0.31428,0.31429 -0.31428,0.73333 0,0.41905 0.31428,0.73334 0.31429,0.31428 0.73334,0.31428 h 5.23809 z"
       id="text92"
       style="font-size:22px;font-family:'White Rabbit', 'Courier New', monospace"
       aria-label="v1.0a" />
    <!-- Version main text -->
    <path
       d="m 726.28571,118 q -0.41904,0 -0.73333,-0.31429 l -4.19048,-4.19047 q -0.31428,-0.31429 -0.31428,-0.73334 v -4.19047 q 0,-0.41905 0.31428,-0.73333 0.31429,-0.31429 0.73334,-0.31429 0.41905,0 0.73333,0.31429 0.31429,0.31428 0.31429,0.73333 v 3.18476 l 3.14285,3.14286 3.14286,-3.14286 v -3.18476 q 0,-0.41905 0.31429,-0.73333 0.31428,-0.31429 0.73333,-0.31429 0.41905,0 0.73333,0.31429 0.31429,0.31428 0.31429,0.73333 v 4.19047 q 0,0.41905 -0.31429,0.73334 l -4.19047,4.19047 Q 726.70476,118 726.28571,118 Z m 10.47619,-10.47619 q -0.41905,0 -0.73333,-0.31429 -0.31429,-0.31428 -0.31429,-0.73333 0,-0.41905 0.31429,-0.73333 l 2.09523,-2.09524 q 0.31429,-0.31429 0.73334,-0.31429 0.41904,0 0.73333,0.31429 0.31429,0.31428 0.31429,0.73333 v 11.52381 h 1.04761 q 0.41905,0 0.73334,0.31429 0.31428,0.31428 0.31428,0.73333 0,0.41905 -0.31428,0.73333 Q 741.37142,118 740.95237,118 h -4.19047 q -0.41905,0 -0.73333,-0.31429 -0.31429,-0.31428 -0.31429,-0.73333 0,-0.41905 0.31429,-0.73333 0.31428,-0.31429 0.73333,-0.31429 h 1.04762 v -9.05143 l -0.31429,0.35619 q -0.31428,0.31429 -0.73333,0.31429 z m 12.57142,6.28571 h 2.09524 q 0.41905,0 0.73333,0.31429 0.31429,0.31429 0.31429,0.73333 v 2.09524 q 0,0.41905 -0.31429,0.73333 Q 751.84761,118 751.42856,118 h -2.09524 q -0.41905,0 -0.73333,-0.31429 -0.31429,-0.31428 -0.31429,-0.73333 v -2.09524 q 0,-0.41904 0.31429,-0.73333 0.31428,-0.31429 0.73333,-0.31429 z M 761.90474,118 q -1.25714,0 -2.2,-0.94286 -0.94285,-0.94285 -0.94285,-2.2 v -8.38095 q 0,-1.25714 0.94285,-2.2 0.94286,-0.94286 2.2,-0.94286 h 4.19048 q 1.25714,0 2.2,0.94286 0.94286,0.94286 0.94286,2.2 v 8.38095 q 0,1.25715 -0.94286,2.2 -0.94286,0.94286 -2.2,0.94286 z m -1.04762,-3.14286 q 0,0.41905 0.31429,0.73334 0.31429,0.31428 0.73333,0.31428 h 4.19048 q 0.41905,0 0.73333,-0.31428 0.31429,-0.31429 0.31429,-0.73334 V 109.2 Z m 0,-2.72381 6.28572,-5.65714 q 0,-0.41905 -0.31429,-0.73333 -0.31428,-0.31429 -0.73333,-0.31429 h -4.19048 q -0.41904,0 -0.73333,0.31429 -0.31429,0.31428 -0.31429,0.73333 z M 774.47617,118 q -1.25715,0 -2.2,-0.94286 -0.94286,-0.94285 -0.94286,-2.2 0,-1.25714 0.94286,-2.2 0.94285,-0.94285 2.2,-0.94285 h 5.23809 v -1.04762 q 0,-0.41905 -0.31428,-0.73334 -0.31429,-0.31428 -0.73334,-0.31428 h -4.19047 q -0.41905,0 -0.73334,-0.31429 -0.31428,-0.31428 -0.31428,-0.73333 0,-0.41905 0.31428,-0.73333 0.31429,-0.31429 0.73334,-0.31429 h 4.19047 q 1.25715,0 2.2,0.94286 0.94286,0.94285 0.94286,2.2 v 6.28571 q 0,0.41905 -0.31429,0.73333 Q 781.18093,118 780.76188,118 Z m 5.23809,-4.19048 h -5.23809 q -0.41905,0 -0.73334,0.31429 -0.31428,0.31429 -0.31428,0.73333 0,0.41905 0.31428,0.73334 0.31429,0.31428 0.73334,0.31428 h 5.23809 z"
       id="text93"
       style="font-size:22px;font-family:'White Rabbit', 'Courier New', monospace;fill:url(#chrome_grad_xirod);stroke:#101010;shape-rendering:crispEdges"
       aria-label="v1.0a" />
    <!-- Version highlight -->
    <path
       d="m 726.28571,116 q -0.41904,0 -0.73333,-0.31429 l -4.19048,-4.19047 q -0.31428,-0.31429 -0.31428,-0.73334 v -4.19047 q 0,-0.41905 0.31428,-0.73333 0.31429,-0.31429 0.73334,-0.31429 0.41905,0 0.73333,0.31429 0.31429,0.31428 0.31429,0.73333 v 3.18476 l 3.14285,3.14286 3.14286,-3.14286 v -3.18476 q 0,-0.41905 0.31429,-0.73333 0.31428,-0.31429 0.73333,-0.31429 0.41905,0 0.73333,0.31429 0.31429,0.31428 0.31429,0.73333 v 4.19047 q 0,0.41905 -0.31429,0.73334 l -4.19047,4.19047 Q 726.70476,116 726.28571,116 Z m 10.47619,-10.47619 q -0.41905,0 -0.73333,-0.31429 -0.31429,-0.31428 -0.31429,-0.73333 0,-0.41905 0.31429,-0.73333 l 2.09523,-2.09524 q 0.31429,-0.31429 0.73334,-0.31429 0.41904,0 0.73333,0.31429 0.31429,0.31428 0.31429,0.73333 v 11.52381 h 1.04761 q 0.41905,0 0.73334,0.31429 0.31428,0.31428 0.31428,0.73333 0,0.41905 -0.31428,0.73333 Q 741.37142,116 740.95237,116 h -4.19047 q -0.41905,0 -0.73333,-0.31429 -0.31429,-0.31428 -0.31429,-0.73333 0,-0.41905 0.31429,-0.73333 0.31428,-0.31429 0.73333,-0.31429 h 1.04762 v -9.05143 l -0.31429,0.35619 q -0.31428,0.31429 -0.73333,0.31429 z m 12.57142,6.28571 h 2.09524 q 0.41905,0 0.73333,0.31429 0.31429,0.31429 0.31429,0.73333 v 2.09524 q 0,0.41905 -0.31429,0.73333 Q 751.84761,116 751.42856,116 h -2.09524 q -0.41905,0 -0.73333,-0.31429 -0.31429,-0.31428 -0.31429,-0.73333 v -2.09524 q 0,-0.41904 0.31429,-0.73333 0.31428,-0.31429 0.73333,-0.31429 z M 761.90474,116 q -1.25714,0 -2.2,-0.94286 -0.94285,-0.94285 -0.94285,-2.2 v -8.38095 q 0,-1.25714 0.94285,-2.2 0.94286,-0.94286 2.2,-0.94286 h 4.19048 q 1.25714,0 2.2,0.94286 0.94286,0.94286 0.94286,2.2 v 8.38095 q 0,1.25715 -0.94286,2.2 -0.94286,0.94286 -2.2,0.94286 z m -1.04762,-3.14286 q 0,0.41905 0.31429,0.73334 0.31429,0.31428 0.73333,0.31428 h 4.19048 q 0.41905,0 0.73333,-0.31428 0.31429,-0.31429 0.31429,-0.73334 V 107.2 Z m 0,-2.72381 6.28572,-5.65714 q 0,-0.41905 -0.31429,-0.73333 -0.31428,-0.31429 -0.73333,-0.31429 h -4.19048 q -0.41904,0 -0.73333,0.31429 -0.31429,0.31428 -0.31429,0.73333 z M 774.47617,116 q -1.25715,0 -2.2,-0.94286 -0.94286,-0.94285 -0.94286,-2.2 0,-1.25714 0.94286,-2.2 0.94285,-0.94285 2.2,-0.94285 h 5.23809 v -1.04762 q 0,-0.41905 -0.31428,-0.73334 -0.31429,-0.31428 -0.73334,-0.31428 h -4.19047 q -0.41905,0 -0.73334,-0.31429 -0.31428,-0.31428 -0.31428,-0.73333 0,-0.41905 0.31428,-0.73333 0.31429,-0.31429 0.73334,-0.31429 h 4.19047 q 1.25715,0 2.2,0.94286 0.94286,0.94285 0.94286,2.2 v 6.28571 q 0,0.41905 -0.31429,0.73333 Q 781.18093,116 780.76188,116 Z m 5.23809,-4.19048 h -5.23809 q -0.41905,0 -0.73334,0.31429 -0.31428,0.31429 -0.31428,0.73333 0,0.41905 0.31428,0.73334 0.31429,0.31428 0.73334,0.31428 h 5.23809 z"
       id="text94"
       style="font-size:22px;font-family:'White Rabbit', 'Courier New', monospace;opacity:0.09;fill:#ffffff"
       aria-label="v1.0a" />
  </g>
  <!-- MECHANICAL DETAILS ON LETTERS -->
  <g
     id="mechanical_details"
     stroke="#39ff14"
     fill="none"
     opacity="0.3">
    <!-- P - Letter 1 Details -->
    <g
       id="letter_P_details">
      <!-- Rivets -->
      <circle
         cx="208"
         cy="75"
         r="1.5"
         fill="#39ff14"
         opacity="1"
         id="circle94" />
      <circle
         cx="208"
         cy="95"
         r="1.5"
         fill="#39ff14"
         opacity="0.4"
         id="circle95" />
      <circle
         cx="220"
         cy="80"
         r="1.2"
         fill="#39ff14"
         opacity="0.35"
         id="circle96" />
      <!-- Vent grille -->
      <rect
         x="212"
         y="88"
         width="6"
         height="2"
         stroke-width="0.7"
         opacity="1"
         id="rect96" />
      <rect
         x="212"
         y="91"
         width="6"
         height="2"
         stroke-width="0.7"
         opacity="1"
         id="rect97" />
      <!-- Circuit trace -->
      <path
         d="M 210 78 L 215 78 L 217 80"
         stroke-width="0.8"
         opacity="0.9"
         id="path97" />
      <circle
         cx="217"
         cy="80"
         r="0.7"
         fill="#39ff14"
         opacity="1"
         id="circle97" />
    </g>
    <!-- h - Letter 2 Details -->
    <g
       id="letter_h_details">
      <!-- Rivets -->
      <circle
         cx="270"
         cy="77"
         r="1.5"
         fill="#39ff14"
         opacity="0.4"
         id="circle98" />
      <circle
         cx="270"
         cy="100"
         r="1.5"
         fill="#39ff14"
         opacity="0.4"
         id="circle99" />
      <circle
         cx="285"
         cy="85"
         r="1.2"
         fill="#39ff14"
         opacity="0.35"
         id="circle100" />
      <!-- Small panel box -->
      <rect
         x="273"
         y="90"
         width="5"
         height="8"
         stroke-width="0.8"
         opacity="0.25"
         id="rect100" />
      <line
         x1="273"
         y1="94"
         x2="278"
         y2="94"
         stroke-width="0.6"
         opacity="0.2"
         id="line100" />
      <!-- Micro circuit -->
      <path
         d="M 277 73 L 280 73 L 282 75"
         stroke-width="0.7"
         opacity="0.2"
         id="path100" />
      <circle
         cx="282"
         cy="75"
         r="0.6"
         fill="#39ff14"
         opacity="0.3"
         id="circle101" />
    </g>
    <!-- i - Letter 3 Details -->
    <g
       id="letter_i_details">
      <!-- Rivets -->
      <circle
         cx="345"
         cy="80"
         r="1.5"
         fill="#39ff14"
         opacity="0.4"
         id="circle102" />
      <circle
         cx="345"
         cy="98"
         r="1.5"
         fill="#39ff14"
         opacity="0.4"
         id="circle103" />
      <circle
         cx="355"
         cy="92"
         r="1.2"
         fill="#39ff14"
         opacity="0.35"
         id="circle104" />
      <!-- Vent slots -->
      <line
         x1="347"
         y1="102"
         x2="353"
         y2="102"
         stroke-width="1.5"
         opacity="0.2"
         id="line104" />
      <line
         x1="347"
         y1="105"
         x2="353"
         y2="105"
         stroke-width="1.5"
         opacity="0.2"
         id="line105" />
      <!-- Circuit detail on dot -->
      <circle
         cx="350"
         cy="65"
         r="1"
         fill="none"
         stroke-width="0.8"
         opacity="0.25"
         id="circle105" />
      <circle
         cx="350"
         cy="65"
         r="0.5"
         fill="#39ff14"
         opacity="0.3"
         id="circle106" />
    </g>
    <!-- G - Letter 4 Details -->
    <g
       id="letter_G_details">
      <!-- Rivets -->
      <circle
         cx="410"
         cy="75"
         r="1.5"
         fill="#39ff14"
         opacity="0.4"
         id="circle107" />
      <circle
         cx="410"
         cy="102"
         r="1.5"
         fill="#39ff14"
         opacity="0.4"
         id="circle108" />
      <circle
         cx="430"
         cy="88"
         r="1.5"
         fill="#39ff14"
         opacity="0.4"
         id="circle109" />
      <circle
         cx="425"
         cy="95"
         r="1.2"
         fill="#39ff14"
         opacity="0.35"
         id="circle110" />
      <!-- Reinforcement plates -->
      <rect
         x="413"
         y="78"
         width="8"
         height="5"
         stroke-width="0.8"
         opacity="0.25"
         id="rect110" />
      <line
         x1="413"
         y1="80.5"
         x2="421"
         y2="80.5"
         stroke-width="0.6"
         opacity="0.2"
         id="line110" />
      <!-- Circuit path -->
      <path
         d="M 415 92 L 420 92 L 422 94"
         stroke-width="0.8"
         opacity="0.2"
         id="path110" />
      <circle
         cx="422"
         cy="94"
         r="0.7"
         fill="#39ff14"
         opacity="0.3"
         id="circle111" />
    </g>
    <!-- E - Letter 5 Details -->
    <g
       id="letter_E_details">
      <!-- Rivets on verticals -->
      <circle
         cx="490"
         cy="77"
         r="1.5"
         fill="#39ff14"
         opacity="0.4"
         id="circle112" />
      <circle
         cx="490"
         cy="90"
         r="1.5"
         fill="#39ff14"
         opacity="0.4"
         id="circle113" />
      <circle
         cx="490"
         cy="103"
         r="1.5"
         fill="#39ff14"
         opacity="0.4"
         id="circle114" />
      <!-- Rivets on horizontals -->
      <circle
         cx="503"
         cy="75"
         r="1.2"
         fill="#39ff14"
         opacity="0.35"
         id="circle115" />
      <circle
         cx="503"
         cy="88"
         r="1.2"
         fill="#39ff14"
         opacity="0.35"
         id="circle116" />
      <circle
         cx="503"
         cy="105"
         r="1.2"
         fill="#39ff14"
         opacity="0.35"
         id="circle117" />
      <!-- Vent panel -->
      <rect
         x="497"
         y="95"
         width="7"
         height="3"
         stroke-width="0.7"
         opacity="0.25"
         id="rect117" />
      <line
         x1="497"
         y1="96.5"
         x2="504"
         y2="96.5"
         stroke-width="0.5"
         opacity="0.2"
         id="line117" />
      <!-- Circuit trace -->
      <path
         d="M 492 80 L 497 80 L 499 82"
         stroke-width="0.8"
         opacity="0.2"
         id="path117" />
      <circle
         cx="499"
         cy="82"
         r="0.7"
         fill="#39ff14"
         opacity="0.3"
         id="circle118" />
    </g>
    <!-- N - Letter 6 Details -->
    <g
       id="letter_N_details">
      <!-- Rivets -->
      <circle
         cx="570"
         cy="78"
         r="1.5"
         fill="#39ff14"
         opacity="0.4"
         id="circle119" />
      <circle
         cx="570"
         cy="102"
         r="1.5"
         fill="#39ff14"
         opacity="0.4"
         id="circle120" />
      <circle
         cx="590"
         cy="78"
         r="1.5"
         fill="#39ff14"
         opacity="0.4"
         id="circle121" />
      <circle
         cx="590"
         cy="102"
         r="1.5"
         fill="#39ff14"
         opacity="0.4"
         id="circle122" />
      <circle
         cx="580"
         cy="87.5"
         r="1.2"
         fill="#39ff14"
         opacity="0.35"
         id="circle123" />
      <!-- Vent grilles -->
      <rect
         x="575"
         y="90"
         width="6"
         height="2"
         stroke-width="0.7"
         opacity="0.25"
         id="rect123" />
      <rect
         x="575"
         y="93"
         width="6"
         height="2"
         stroke-width="0.7"
         opacity="0.25"
         id="rect124" />
      <!-- Circuit nodes -->
      <path
         d="M 573 75 L 578 75 L 580 77"
         stroke-width="0.8"
         opacity="0.2"
         id="path124" />
      <circle
         cx="580"
         cy="77"
         r="0.7"
         fill="#39ff14"
         opacity="0.3"
         id="circle124" />
      <path
         d="M 587 100 L 592 100 L 594 98"
         stroke-width="0.8"
         opacity="0.2"
         id="path125" />
      <circle
         cx="594"
         cy="98"
         r="0.7"
         fill="#39ff14"
         opacity="0.3"
         id="circle125" />
    </g>
  </g>
</svg>
